<svg width="310" height="139" viewBox="0 0 310 139" fill="none" xmlns="http://www.w3.org/2000/svg">
<rect width="310" height="139" fill="#1DA1F2"/>
<g clip-path="url(#clip0_1_437)">
<path d="M62.1003 89.0001C80.2091 89.0001 90.1166 73.9935 90.1166 60.9838C90.1166 60.5619 90.1072 60.1307 90.0884 59.7088C92.0158 58.315 93.679 56.5886 95 54.6107C93.205 55.4093 91.2993 55.9309 89.3478 56.1576C91.4026 54.9259 92.9411 52.991 93.6781 50.7116C91.7451 51.8572 89.6312 52.6653 87.4269 53.1013C85.9417 51.5232 83.978 50.4783 81.8394 50.1282C79.7008 49.7781 77.5064 50.1422 75.5955 51.1643C73.6846 52.1864 72.1636 53.8095 71.2677 55.7827C70.3718 57.7559 70.1509 59.9693 70.6391 62.0807C66.725 61.8843 62.8959 60.8675 59.4 59.0963C55.9041 57.3251 52.8194 54.839 50.3459 51.7991C49.0888 53.9666 48.7041 56.5314 49.2701 58.9723C49.836 61.4132 51.3101 63.547 53.3928 64.9401C51.8293 64.8904 50.3 64.4695 48.9313 63.7119V63.8338C48.9298 66.1084 49.7162 68.3133 51.1566 70.0736C52.597 71.834 54.6026 73.0412 56.8325 73.4901C55.3841 73.8863 53.864 73.9441 52.3897 73.6588C53.0189 75.615 54.2431 77.3259 55.8915 78.5528C57.5399 79.7796 59.5302 80.4613 61.5847 80.5026C58.0968 83.2423 53.7883 84.7283 49.3531 84.7213C48.5666 84.7201 47.7808 84.6719 47 84.5769C51.5057 87.4676 56.7471 89.0029 62.1003 89.0001Z" fill="white"/>
</g>
<path d="M126.494 84.5V71.9H128.906L134.27 80.792H132.992L138.266 71.9H140.66L140.696 84.5H137.96L137.942 76.094H138.446L134.234 83.168H132.92L128.618 76.094H129.23V84.5H126.494ZM149.805 84.716C148.809 84.716 147.885 84.554 147.033 84.23C146.193 83.906 145.461 83.45 144.837 82.862C144.225 82.274 143.745 81.584 143.397 80.792C143.061 80 142.893 79.136 142.893 78.2C142.893 77.264 143.061 76.4 143.397 75.608C143.745 74.816 144.231 74.126 144.855 73.538C145.479 72.95 146.211 72.494 147.051 72.17C147.891 71.846 148.803 71.684 149.787 71.684C150.783 71.684 151.695 71.846 152.523 72.17C153.363 72.494 154.089 72.95 154.701 73.538C155.325 74.126 155.811 74.816 156.159 75.608C156.507 76.388 156.681 77.252 156.681 78.2C156.681 79.136 156.507 80.006 156.159 80.81C155.811 81.602 155.325 82.292 154.701 82.88C154.089 83.456 153.363 83.906 152.523 84.23C151.695 84.554 150.789 84.716 149.805 84.716ZM149.787 82.232C150.351 82.232 150.867 82.136 151.335 81.944C151.815 81.752 152.235 81.476 152.595 81.116C152.955 80.756 153.231 80.33 153.423 79.838C153.627 79.346 153.729 78.8 153.729 78.2C153.729 77.6 153.627 77.054 153.423 76.562C153.231 76.07 152.955 75.644 152.595 75.284C152.247 74.924 151.833 74.648 151.353 74.456C150.873 74.264 150.351 74.168 149.787 74.168C149.223 74.168 148.701 74.264 148.221 74.456C147.753 74.648 147.339 74.924 146.979 75.284C146.619 75.644 146.337 76.07 146.133 76.562C145.941 77.054 145.845 77.6 145.845 78.2C145.845 78.788 145.941 79.334 146.133 79.838C146.337 80.33 146.613 80.756 146.961 81.116C147.321 81.476 147.741 81.752 148.221 81.944C148.701 82.136 149.223 82.232 149.787 82.232ZM164.957 84.716C163.961 84.716 163.043 84.56 162.203 84.248C161.375 83.924 160.649 83.468 160.025 82.88C159.413 82.292 158.933 81.602 158.585 80.81C158.249 80.018 158.081 79.148 158.081 78.2C158.081 77.252 158.249 76.382 158.585 75.59C158.933 74.798 159.419 74.108 160.043 73.52C160.667 72.932 161.399 72.482 162.239 72.17C163.079 71.846 164.003 71.684 165.011 71.684C166.127 71.684 167.129 71.87 168.017 72.242C168.917 72.614 169.673 73.154 170.285 73.862L168.413 75.59C167.957 75.11 167.459 74.756 166.919 74.528C166.379 74.288 165.791 74.168 165.155 74.168C164.543 74.168 163.985 74.264 163.481 74.456C162.977 74.648 162.539 74.924 162.167 75.284C161.807 75.644 161.525 76.07 161.321 76.562C161.129 77.054 161.033 77.6 161.033 78.2C161.033 78.788 161.129 79.328 161.321 79.82C161.525 80.312 161.807 80.744 162.167 81.116C162.539 81.476 162.971 81.752 163.463 81.944C163.967 82.136 164.519 82.232 165.119 82.232C165.695 82.232 166.253 82.142 166.793 81.962C167.345 81.77 167.879 81.452 168.395 81.008L170.051 83.114C169.367 83.63 168.569 84.026 167.657 84.302C166.757 84.578 165.857 84.716 164.957 84.716ZM167.387 82.736V78.002H170.051V83.114L167.387 82.736ZM172.76 84.5V71.9H178.214C179.342 71.9 180.314 72.086 181.13 72.458C181.946 72.818 182.576 73.34 183.02 74.024C183.464 74.708 183.686 75.524 183.686 76.472C183.686 77.408 183.464 78.218 183.02 78.902C182.576 79.574 181.946 80.09 181.13 80.45C180.314 80.81 179.342 80.99 178.214 80.99H174.38L175.676 79.712V84.5H172.76ZM180.77 84.5L177.62 79.928H180.734L183.92 84.5H180.77ZM175.676 80.036L174.38 78.668H178.052C178.952 78.668 179.624 78.476 180.068 78.092C180.512 77.696 180.734 77.156 180.734 76.472C180.734 75.776 180.512 75.236 180.068 74.852C179.624 74.468 178.952 74.276 178.052 74.276H174.38L175.676 72.89V80.036ZM184.34 84.5L189.956 71.9H192.836L198.47 84.5H195.41L190.802 73.376H191.954L187.328 84.5H184.34ZM187.148 81.8L187.922 79.586H194.402L195.194 81.8H187.148ZM199.777 84.5V71.9H205.231C206.359 71.9 207.331 72.086 208.147 72.458C208.963 72.818 209.593 73.34 210.037 74.024C210.481 74.708 210.703 75.524 210.703 76.472C210.703 77.408 210.481 78.218 210.037 78.902C209.593 79.586 208.963 80.114 208.147 80.486C207.331 80.846 206.359 81.026 205.231 81.026H201.397L202.693 79.712V84.5H199.777ZM202.693 80.036L201.397 78.65H205.069C205.969 78.65 206.641 78.458 207.085 78.074C207.529 77.69 207.751 77.156 207.751 76.472C207.751 75.776 207.529 75.236 207.085 74.852C206.641 74.468 205.969 74.276 205.069 74.276H201.397L202.693 72.89V80.036ZM221.425 71.9H224.341V84.5H221.425V71.9ZM215.701 84.5H212.785V71.9H215.701V84.5ZM221.641 79.334H215.485V76.868H221.641V79.334ZM227.322 84.5V71.9H230.238V82.124H236.556V84.5H227.322ZM238.185 84.5V71.9H241.101V82.124H247.419V84.5H238.185ZM254.958 84.716C253.962 84.716 253.038 84.554 252.186 84.23C251.346 83.906 250.614 83.45 249.99 82.862C249.378 82.274 248.898 81.584 248.55 80.792C248.214 80 248.046 79.136 248.046 78.2C248.046 77.264 248.214 76.4 248.55 75.608C248.898 74.816 249.384 74.126 250.008 73.538C250.632 72.95 251.364 72.494 252.204 72.17C253.044 71.846 253.956 71.684 254.94 71.684C255.936 71.684 256.848 71.846 257.676 72.17C258.516 72.494 259.242 72.95 259.854 73.538C260.478 74.126 260.964 74.816 261.312 75.608C261.66 76.388 261.834 77.252 261.834 78.2C261.834 79.136 261.66 80.006 261.312 80.81C260.964 81.602 260.478 82.292 259.854 82.88C259.242 83.456 258.516 83.906 257.676 84.23C256.848 84.554 255.942 84.716 254.958 84.716ZM254.94 82.232C255.504 82.232 256.02 82.136 256.488 81.944C256.968 81.752 257.388 81.476 257.748 81.116C258.108 80.756 258.384 80.33 258.576 79.838C258.78 79.346 258.882 78.8 258.882 78.2C258.882 77.6 258.78 77.054 258.576 76.562C258.384 76.07 258.108 75.644 257.748 75.284C257.4 74.924 256.986 74.648 256.506 74.456C256.026 74.264 255.504 74.168 254.94 74.168C254.376 74.168 253.854 74.264 253.374 74.456C252.906 74.648 252.492 74.924 252.132 75.284C251.772 75.644 251.49 76.07 251.286 76.562C251.094 77.054 250.998 77.6 250.998 78.2C250.998 78.788 251.094 79.334 251.286 79.838C251.49 80.33 251.766 80.756 252.114 81.116C252.474 81.476 252.894 81.752 253.374 81.944C253.854 82.136 254.376 82.232 254.94 82.232Z" fill="white"/>
<path d="M129.143 51.9688V60.5H128.029V51.9688H129.143ZM131.885 51.9688V52.8945H125.293V51.9688H131.885ZM134.252 59.375L135.881 54.1602H136.596L136.455 55.1973L134.797 60.5H134.1L134.252 59.375ZM133.156 54.1602L134.545 59.4336L134.645 60.5H133.912L132.072 54.1602H133.156ZM138.154 59.3926L139.479 54.1602H140.557L138.717 60.5H137.99L138.154 59.3926ZM136.754 54.1602L138.348 59.2871L138.529 60.5H137.838L136.133 55.1855L135.992 54.1602H136.754ZM142.848 54.1602V60.5H141.758V54.1602H142.848ZM141.676 52.4785C141.676 52.3027 141.729 52.1543 141.834 52.0332C141.943 51.9121 142.104 51.8516 142.314 51.8516C142.521 51.8516 142.68 51.9121 142.789 52.0332C142.902 52.1543 142.959 52.3027 142.959 52.4785C142.959 52.6465 142.902 52.791 142.789 52.9121C142.68 53.0293 142.521 53.0879 142.314 53.0879C142.104 53.0879 141.943 53.0293 141.834 52.9121C141.729 52.791 141.676 52.6465 141.676 52.4785ZM147.242 54.1602V54.9922H143.814V54.1602H147.242ZM144.975 52.6191H146.059V58.9297C146.059 59.1445 146.092 59.3066 146.158 59.416C146.225 59.5254 146.311 59.5977 146.416 59.6328C146.521 59.668 146.635 59.6855 146.756 59.6855C146.846 59.6855 146.939 59.6777 147.037 59.6621C147.139 59.6426 147.215 59.627 147.266 59.6152L147.271 60.5C147.186 60.5273 147.072 60.5527 146.932 60.5762C146.795 60.6035 146.629 60.6172 146.434 60.6172C146.168 60.6172 145.924 60.5645 145.701 60.459C145.479 60.3535 145.301 60.1777 145.168 59.9316C145.039 59.6816 144.975 59.3457 144.975 58.9238V52.6191ZM151.168 54.1602V54.9922H147.74V54.1602H151.168ZM148.9 52.6191H149.984V58.9297C149.984 59.1445 150.018 59.3066 150.084 59.416C150.15 59.5254 150.236 59.5977 150.342 59.6328C150.447 59.668 150.561 59.6855 150.682 59.6855C150.771 59.6855 150.865 59.6777 150.963 59.6621C151.064 59.6426 151.141 59.627 151.191 59.6152L151.197 60.5C151.111 60.5273 150.998 60.5527 150.857 60.5762C150.721 60.6035 150.555 60.6172 150.359 60.6172C150.094 60.6172 149.85 60.5645 149.627 60.459C149.404 60.3535 149.227 60.1777 149.094 59.9316C148.965 59.6816 148.9 59.3457 148.9 58.9238V52.6191ZM155.07 60.6172C154.629 60.6172 154.229 60.543 153.869 60.3945C153.514 60.2422 153.207 60.0293 152.949 59.7559C152.695 59.4824 152.5 59.1582 152.363 58.7832C152.227 58.4082 152.158 57.998 152.158 57.5527V57.3066C152.158 56.791 152.234 56.332 152.387 55.9297C152.539 55.5234 152.746 55.1797 153.008 54.8984C153.27 54.6172 153.566 54.4043 153.898 54.2598C154.23 54.1152 154.574 54.043 154.93 54.043C155.383 54.043 155.773 54.1211 156.102 54.2773C156.434 54.4336 156.705 54.6523 156.916 54.9336C157.127 55.2109 157.283 55.5391 157.385 55.918C157.486 56.293 157.537 56.7031 157.537 57.1484V57.6348H152.803V56.75H156.453V56.668C156.438 56.3867 156.379 56.1133 156.277 55.8477C156.18 55.582 156.023 55.3633 155.809 55.1914C155.594 55.0195 155.301 54.9336 154.93 54.9336C154.684 54.9336 154.457 54.9863 154.25 55.0918C154.043 55.1934 153.865 55.3457 153.717 55.5488C153.568 55.752 153.453 56 153.371 56.293C153.289 56.5859 153.248 56.9238 153.248 57.3066V57.5527C153.248 57.8535 153.289 58.1367 153.371 58.4023C153.457 58.6641 153.58 58.8945 153.74 59.0938C153.904 59.293 154.102 59.4492 154.332 59.5625C154.566 59.6758 154.832 59.7324 155.129 59.7324C155.512 59.7324 155.836 59.6543 156.102 59.498C156.367 59.3418 156.6 59.1328 156.799 58.8711L157.455 59.3926C157.318 59.5996 157.145 59.7969 156.934 59.9844C156.723 60.1719 156.463 60.3242 156.154 60.4414C155.85 60.5586 155.488 60.6172 155.07 60.6172ZM159.887 55.1562V60.5H158.803V54.1602H159.857L159.887 55.1562ZM161.867 54.125L161.861 55.1328C161.771 55.1133 161.686 55.1016 161.604 55.0977C161.525 55.0898 161.436 55.0859 161.334 55.0859C161.084 55.0859 160.863 55.125 160.672 55.2031C160.48 55.2812 160.318 55.3906 160.186 55.5312C160.053 55.6719 159.947 55.8398 159.869 56.0352C159.795 56.2266 159.746 56.4375 159.723 56.668L159.418 56.8438C159.418 56.4609 159.455 56.1016 159.529 55.7656C159.607 55.4297 159.727 55.1328 159.887 54.875C160.047 54.6133 160.25 54.4102 160.496 54.2656C160.746 54.1172 161.043 54.043 161.387 54.043C161.465 54.043 161.555 54.0527 161.656 54.0723C161.758 54.0879 161.828 54.1055 161.867 54.125Z" fill="white"/>
<defs>
<clipPath id="clip0_1_437">
<rect width="48" height="48" fill="white" transform="translate(47 45.5)"/>
</clipPath>
</defs>
</svg>
