<svg width="310" height="139" viewBox="0 0 310 139" fill="none" xmlns="http://www.w3.org/2000/svg">
<rect width="310" height="139" fill="#FF0302"/>
<path d="M94.5219 59.9001C94.5219 59.9001 94.0531 56.5907 92.6094 55.1376C90.7812 53.2251 88.7375 53.2157 87.8 53.1032C81.0875 52.6157 71.0094 52.6157 71.0094 52.6157H70.9906C70.9906 52.6157 60.9125 52.6157 54.2 53.1032C53.2625 53.2157 51.2188 53.2251 49.3906 55.1376C47.9469 56.5907 47.4875 59.9001 47.4875 59.9001C47.4875 59.9001 47 63.7907 47 67.672V71.3095C47 75.1907 47.4781 79.0813 47.4781 79.0813C47.4781 79.0813 47.9469 82.3907 49.3812 83.8438C51.2094 85.7563 53.6094 85.6907 54.6781 85.897C58.5219 86.2626 71 86.3751 71 86.3751C71 86.3751 81.0875 86.3563 87.8 85.8782C88.7375 85.7657 90.7812 85.7563 92.6094 83.8438C94.0531 82.3907 94.5219 79.0813 94.5219 79.0813C94.5219 79.0813 95 75.2001 95 71.3095V67.672C95 63.7907 94.5219 59.9001 94.5219 59.9001ZM66.0406 75.7251V62.2345L79.0062 69.0032L66.0406 75.7251Z" fill="white"/>
<path d="M126.494 84.5V71.9H128.906L134.27 80.792H132.992L138.266 71.9H140.66L140.696 84.5H137.96L137.942 76.094H138.446L134.234 83.168H132.92L128.618 76.094H129.23V84.5H126.494ZM149.805 84.716C148.809 84.716 147.885 84.554 147.033 84.23C146.193 83.906 145.461 83.45 144.837 82.862C144.225 82.274 143.745 81.584 143.397 80.792C143.061 80 142.893 79.136 142.893 78.2C142.893 77.264 143.061 76.4 143.397 75.608C143.745 74.816 144.231 74.126 144.855 73.538C145.479 72.95 146.211 72.494 147.051 72.17C147.891 71.846 148.803 71.684 149.787 71.684C150.783 71.684 151.695 71.846 152.523 72.17C153.363 72.494 154.089 72.95 154.701 73.538C155.325 74.126 155.811 74.816 156.159 75.608C156.507 76.388 156.681 77.252 156.681 78.2C156.681 79.136 156.507 80.006 156.159 80.81C155.811 81.602 155.325 82.292 154.701 82.88C154.089 83.456 153.363 83.906 152.523 84.23C151.695 84.554 150.789 84.716 149.805 84.716ZM149.787 82.232C150.351 82.232 150.867 82.136 151.335 81.944C151.815 81.752 152.235 81.476 152.595 81.116C152.955 80.756 153.231 80.33 153.423 79.838C153.627 79.346 153.729 78.8 153.729 78.2C153.729 77.6 153.627 77.054 153.423 76.562C153.231 76.07 152.955 75.644 152.595 75.284C152.247 74.924 151.833 74.648 151.353 74.456C150.873 74.264 150.351 74.168 149.787 74.168C149.223 74.168 148.701 74.264 148.221 74.456C147.753 74.648 147.339 74.924 146.979 75.284C146.619 75.644 146.337 76.07 146.133 76.562C145.941 77.054 145.845 77.6 145.845 78.2C145.845 78.788 145.941 79.334 146.133 79.838C146.337 80.33 146.613 80.756 146.961 81.116C147.321 81.476 147.741 81.752 148.221 81.944C148.701 82.136 149.223 82.232 149.787 82.232ZM164.957 84.716C163.961 84.716 163.043 84.56 162.203 84.248C161.375 83.924 160.649 83.468 160.025 82.88C159.413 82.292 158.933 81.602 158.585 80.81C158.249 80.018 158.081 79.148 158.081 78.2C158.081 77.252 158.249 76.382 158.585 75.59C158.933 74.798 159.419 74.108 160.043 73.52C160.667 72.932 161.399 72.482 162.239 72.17C163.079 71.846 164.003 71.684 165.011 71.684C166.127 71.684 167.129 71.87 168.017 72.242C168.917 72.614 169.673 73.154 170.285 73.862L168.413 75.59C167.957 75.11 167.459 74.756 166.919 74.528C166.379 74.288 165.791 74.168 165.155 74.168C164.543 74.168 163.985 74.264 163.481 74.456C162.977 74.648 162.539 74.924 162.167 75.284C161.807 75.644 161.525 76.07 161.321 76.562C161.129 77.054 161.033 77.6 161.033 78.2C161.033 78.788 161.129 79.328 161.321 79.82C161.525 80.312 161.807 80.744 162.167 81.116C162.539 81.476 162.971 81.752 163.463 81.944C163.967 82.136 164.519 82.232 165.119 82.232C165.695 82.232 166.253 82.142 166.793 81.962C167.345 81.77 167.879 81.452 168.395 81.008L170.051 83.114C169.367 83.63 168.569 84.026 167.657 84.302C166.757 84.578 165.857 84.716 164.957 84.716ZM167.387 82.736V78.002H170.051V83.114L167.387 82.736ZM172.76 84.5V71.9H178.214C179.342 71.9 180.314 72.086 181.13 72.458C181.946 72.818 182.576 73.34 183.02 74.024C183.464 74.708 183.686 75.524 183.686 76.472C183.686 77.408 183.464 78.218 183.02 78.902C182.576 79.574 181.946 80.09 181.13 80.45C180.314 80.81 179.342 80.99 178.214 80.99H174.38L175.676 79.712V84.5H172.76ZM180.77 84.5L177.62 79.928H180.734L183.92 84.5H180.77ZM175.676 80.036L174.38 78.668H178.052C178.952 78.668 179.624 78.476 180.068 78.092C180.512 77.696 180.734 77.156 180.734 76.472C180.734 75.776 180.512 75.236 180.068 74.852C179.624 74.468 178.952 74.276 178.052 74.276H174.38L175.676 72.89V80.036ZM184.34 84.5L189.956 71.9H192.836L198.47 84.5H195.41L190.802 73.376H191.954L187.328 84.5H184.34ZM187.148 81.8L187.922 79.586H194.402L195.194 81.8H187.148ZM199.777 84.5V71.9H205.231C206.359 71.9 207.331 72.086 208.147 72.458C208.963 72.818 209.593 73.34 210.037 74.024C210.481 74.708 210.703 75.524 210.703 76.472C210.703 77.408 210.481 78.218 210.037 78.902C209.593 79.586 208.963 80.114 208.147 80.486C207.331 80.846 206.359 81.026 205.231 81.026H201.397L202.693 79.712V84.5H199.777ZM202.693 80.036L201.397 78.65H205.069C205.969 78.65 206.641 78.458 207.085 78.074C207.529 77.69 207.751 77.156 207.751 76.472C207.751 75.776 207.529 75.236 207.085 74.852C206.641 74.468 205.969 74.276 205.069 74.276H201.397L202.693 72.89V80.036ZM221.425 71.9H224.341V84.5H221.425V71.9ZM215.701 84.5H212.785V71.9H215.701V84.5ZM221.641 79.334H215.485V76.868H221.641V79.334ZM227.322 84.5V71.9H230.238V82.124H236.556V84.5H227.322ZM238.185 84.5V71.9H241.101V82.124H247.419V84.5H238.185ZM254.958 84.716C253.962 84.716 253.038 84.554 252.186 84.23C251.346 83.906 250.614 83.45 249.99 82.862C249.378 82.274 248.898 81.584 248.55 80.792C248.214 80 248.046 79.136 248.046 78.2C248.046 77.264 248.214 76.4 248.55 75.608C248.898 74.816 249.384 74.126 250.008 73.538C250.632 72.95 251.364 72.494 252.204 72.17C253.044 71.846 253.956 71.684 254.94 71.684C255.936 71.684 256.848 71.846 257.676 72.17C258.516 72.494 259.242 72.95 259.854 73.538C260.478 74.126 260.964 74.816 261.312 75.608C261.66 76.388 261.834 77.252 261.834 78.2C261.834 79.136 261.66 80.006 261.312 80.81C260.964 81.602 260.478 82.292 259.854 82.88C259.242 83.456 258.516 83.906 257.676 84.23C256.848 84.554 255.942 84.716 254.958 84.716ZM254.94 82.232C255.504 82.232 256.02 82.136 256.488 81.944C256.968 81.752 257.388 81.476 257.748 81.116C258.108 80.756 258.384 80.33 258.576 79.838C258.78 79.346 258.882 78.8 258.882 78.2C258.882 77.6 258.78 77.054 258.576 76.562C258.384 76.07 258.108 75.644 257.748 75.284C257.4 74.924 256.986 74.648 256.506 74.456C256.026 74.264 255.504 74.168 254.94 74.168C254.376 74.168 253.854 74.264 253.374 74.456C252.906 74.648 252.492 74.924 252.132 75.284C251.772 75.644 251.49 76.07 251.286 76.562C251.094 77.054 250.998 77.6 250.998 78.2C250.998 78.788 251.094 79.334 251.286 79.838C251.49 80.33 251.766 80.756 252.114 81.116C252.474 81.476 252.894 81.752 253.374 81.944C253.854 82.136 254.376 82.232 254.94 82.232Z" fill="white"/>
<path d="M126.383 51.9688L128.598 56.252L130.818 51.9688H132.102L129.16 57.3125V60.5H128.029V57.3125L125.088 51.9688H126.383ZM132.359 57.4004V57.2656C132.359 56.8086 132.426 56.3848 132.559 55.9941C132.691 55.5996 132.883 55.2578 133.133 54.9688C133.383 54.6758 133.686 54.4492 134.041 54.2891C134.396 54.125 134.795 54.043 135.236 54.043C135.682 54.043 136.082 54.125 136.438 54.2891C136.797 54.4492 137.102 54.6758 137.352 54.9688C137.605 55.2578 137.799 55.5996 137.932 55.9941C138.064 56.3848 138.131 56.8086 138.131 57.2656V57.4004C138.131 57.8574 138.064 58.2812 137.932 58.6719C137.799 59.0625 137.605 59.4043 137.352 59.6973C137.102 59.9863 136.799 60.2129 136.443 60.377C136.092 60.5371 135.693 60.6172 135.248 60.6172C134.803 60.6172 134.402 60.5371 134.047 60.377C133.691 60.2129 133.387 59.9863 133.133 59.6973C132.883 59.4043 132.691 59.0625 132.559 58.6719C132.426 58.2812 132.359 57.8574 132.359 57.4004ZM133.443 57.2656V57.4004C133.443 57.7168 133.48 58.0156 133.555 58.2969C133.629 58.5742 133.74 58.8203 133.889 59.0352C134.041 59.25 134.23 59.4199 134.457 59.5449C134.684 59.666 134.947 59.7266 135.248 59.7266C135.545 59.7266 135.805 59.666 136.027 59.5449C136.254 59.4199 136.441 59.25 136.59 59.0352C136.738 58.8203 136.85 58.5742 136.924 58.2969C137.002 58.0156 137.041 57.7168 137.041 57.4004V57.2656C137.041 56.9531 137.002 56.6582 136.924 56.3809C136.85 56.0996 136.736 55.8516 136.584 55.6367C136.436 55.418 136.248 55.2461 136.021 55.1211C135.799 54.9961 135.537 54.9336 135.236 54.9336C134.939 54.9336 134.678 54.9961 134.451 55.1211C134.229 55.2461 134.041 55.418 133.889 55.6367C133.74 55.8516 133.629 56.0996 133.555 56.3809C133.48 56.6582 133.443 56.9531 133.443 57.2656ZM143.369 59.0352V54.1602H144.459V60.5H143.422L143.369 59.0352ZM143.574 57.6992L144.025 57.6875C144.025 58.1094 143.98 58.5 143.891 58.8594C143.805 59.2148 143.664 59.5234 143.469 59.7852C143.273 60.0469 143.018 60.252 142.701 60.4004C142.385 60.5449 142 60.6172 141.547 60.6172C141.238 60.6172 140.955 60.5723 140.697 60.4824C140.443 60.3926 140.225 60.2539 140.041 60.0664C139.857 59.8789 139.715 59.6348 139.613 59.334C139.516 59.0332 139.467 58.6719 139.467 58.25V54.1602H140.551V58.2617C140.551 58.5469 140.582 58.7832 140.645 58.9707C140.711 59.1543 140.799 59.3008 140.908 59.4102C141.021 59.5156 141.146 59.5898 141.283 59.6328C141.424 59.6758 141.568 59.6973 141.717 59.6973C142.178 59.6973 142.543 59.6094 142.812 59.4336C143.082 59.2539 143.275 59.0137 143.393 58.7129C143.514 58.4082 143.574 58.0703 143.574 57.6992ZM148.766 54.1602V54.9922H145.338V54.1602H148.766ZM146.498 52.6191H147.582V58.9297C147.582 59.1445 147.615 59.3066 147.682 59.416C147.748 59.5254 147.834 59.5977 147.939 59.6328C148.045 59.668 148.158 59.6855 148.279 59.6855C148.369 59.6855 148.463 59.6777 148.561 59.6621C148.662 59.6426 148.738 59.627 148.789 59.6152L148.795 60.5C148.709 60.5273 148.596 60.5527 148.455 60.5762C148.318 60.6035 148.152 60.6172 147.957 60.6172C147.691 60.6172 147.447 60.5645 147.225 60.459C147.002 60.3535 146.824 60.1777 146.691 59.9316C146.562 59.6816 146.498 59.3457 146.498 58.9238V52.6191ZM153.916 59.0352V54.1602H155.006V60.5H153.969L153.916 59.0352ZM154.121 57.6992L154.572 57.6875C154.572 58.1094 154.527 58.5 154.438 58.8594C154.352 59.2148 154.211 59.5234 154.016 59.7852C153.82 60.0469 153.564 60.252 153.248 60.4004C152.932 60.5449 152.547 60.6172 152.094 60.6172C151.785 60.6172 151.502 60.5723 151.244 60.4824C150.99 60.3926 150.771 60.2539 150.588 60.0664C150.404 59.8789 150.262 59.6348 150.16 59.334C150.062 59.0332 150.014 58.6719 150.014 58.25V54.1602H151.098V58.2617C151.098 58.5469 151.129 58.7832 151.191 58.9707C151.258 59.1543 151.346 59.3008 151.455 59.4102C151.568 59.5156 151.693 59.5898 151.83 59.6328C151.971 59.6758 152.115 59.6973 152.264 59.6973C152.725 59.6973 153.09 59.6094 153.359 59.4336C153.629 59.2539 153.822 59.0137 153.939 58.7129C154.061 58.4082 154.121 58.0703 154.121 57.6992ZM156.652 51.5H157.742V59.2695L157.648 60.5H156.652V51.5ZM162.025 57.2773V57.4004C162.025 57.8613 161.971 58.2891 161.861 58.6836C161.752 59.0742 161.592 59.4141 161.381 59.7031C161.17 59.9922 160.912 60.2168 160.607 60.377C160.303 60.5371 159.953 60.6172 159.559 60.6172C159.156 60.6172 158.803 60.5488 158.498 60.4121C158.197 60.2715 157.943 60.0703 157.736 59.8086C157.529 59.5469 157.363 59.2305 157.238 58.8594C157.117 58.4883 157.033 58.0703 156.986 57.6055V57.0664C157.033 56.5977 157.117 56.1777 157.238 55.8066C157.363 55.4355 157.529 55.1191 157.736 54.8574C157.943 54.5918 158.197 54.3906 158.498 54.2539C158.799 54.1133 159.148 54.043 159.547 54.043C159.945 54.043 160.299 54.1211 160.607 54.2773C160.916 54.4297 161.174 54.6484 161.381 54.9336C161.592 55.2188 161.752 55.5605 161.861 55.959C161.971 56.3535 162.025 56.793 162.025 57.2773ZM160.936 57.4004V57.2773C160.936 56.9609 160.906 56.6641 160.848 56.3867C160.789 56.1055 160.695 55.8594 160.566 55.6484C160.438 55.4336 160.268 55.2656 160.057 55.1445C159.846 55.0195 159.586 54.957 159.277 54.957C159.004 54.957 158.766 55.0039 158.562 55.0977C158.363 55.1914 158.193 55.3184 158.053 55.4785C157.912 55.6348 157.797 55.8145 157.707 56.0176C157.621 56.2168 157.557 56.4238 157.514 56.6387V58.0508C157.576 58.3242 157.678 58.5879 157.818 58.8418C157.963 59.0918 158.154 59.2969 158.393 59.457C158.635 59.6172 158.934 59.6973 159.289 59.6973C159.582 59.6973 159.832 59.6387 160.039 59.5215C160.25 59.4004 160.42 59.2344 160.549 59.0234C160.682 58.8125 160.779 58.5684 160.842 58.291C160.904 58.0137 160.936 57.7168 160.936 57.4004ZM166.027 60.6172C165.586 60.6172 165.186 60.543 164.826 60.3945C164.471 60.2422 164.164 60.0293 163.906 59.7559C163.652 59.4824 163.457 59.1582 163.32 58.7832C163.184 58.4082 163.115 57.998 163.115 57.5527V57.3066C163.115 56.791 163.191 56.332 163.344 55.9297C163.496 55.5234 163.703 55.1797 163.965 54.8984C164.227 54.6172 164.523 54.4043 164.855 54.2598C165.188 54.1152 165.531 54.043 165.887 54.043C166.34 54.043 166.73 54.1211 167.059 54.2773C167.391 54.4336 167.662 54.6523 167.873 54.9336C168.084 55.2109 168.24 55.5391 168.342 55.918C168.443 56.293 168.494 56.7031 168.494 57.1484V57.6348H163.76V56.75H167.41V56.668C167.395 56.3867 167.336 56.1133 167.234 55.8477C167.137 55.582 166.98 55.3633 166.766 55.1914C166.551 55.0195 166.258 54.9336 165.887 54.9336C165.641 54.9336 165.414 54.9863 165.207 55.0918C165 55.1934 164.822 55.3457 164.674 55.5488C164.525 55.752 164.41 56 164.328 56.293C164.246 56.5859 164.205 56.9238 164.205 57.3066V57.5527C164.205 57.8535 164.246 58.1367 164.328 58.4023C164.414 58.6641 164.537 58.8945 164.697 59.0938C164.861 59.293 165.059 59.4492 165.289 59.5625C165.523 59.6758 165.789 59.7324 166.086 59.7324C166.469 59.7324 166.793 59.6543 167.059 59.498C167.324 59.3418 167.557 59.1328 167.756 58.8711L168.412 59.3926C168.275 59.5996 168.102 59.7969 167.891 59.9844C167.68 60.1719 167.42 60.3242 167.111 60.4414C166.807 60.5586 166.445 60.6172 166.027 60.6172Z" fill="white"/>
</svg>
