<svg width="310" height="139" viewBox="0 0 310 139" fill="none" xmlns="http://www.w3.org/2000/svg">
<rect width="310" height="139" fill="white"/>
<path fill-rule="evenodd" clip-rule="evenodd" d="M97.2583 83.4938H84.5912V80.7556H104.02C107.973 80.7556 113.101 78.1996 112.695 68.1162C112.29 58.0328 109.364 55.3769 105.133 55.3769H99.9562V62.8944C99.9562 65.6854 96.9852 70.8621 91.3583 70.8621H81.32C76.6384 70.8621 74.7928 73.6531 74.7928 79.8201V89.0482C74.7928 93.5948 76.9985 96.1156 85.1913 96.1156C93.384 96.1156 97.2583 94.6301 97.2583 90.2186V83.4938ZM92.3808 90.5004C93.5734 90.5004 94.5401 89.5337 94.5401 88.3411C94.5401 87.1485 93.5734 86.1818 92.3808 86.1818C91.1882 86.1818 90.2215 87.1485 90.2215 88.3411C90.2215 89.5337 91.1882 90.5004 92.3808 90.5004Z" fill="#FFC107"/>
<path fill-rule="evenodd" clip-rule="evenodd" d="M74.7417 55.5062H87.4088V58.2444H67.9796C64.0271 58.2444 58.8994 60.8004 59.3045 70.8838C59.7096 80.9672 62.6356 83.6231 66.867 83.6231H72.0438V76.1055C72.0438 73.3146 75.0148 68.1379 80.6417 68.1379H90.68C95.3616 68.1379 97.2072 65.3469 97.2072 59.1799V49.9518C97.2072 45.4052 95.0015 42.8844 86.8087 42.8844C78.616 42.8844 74.7417 44.3699 74.7417 48.7814V55.5062ZM79.6192 48.4996C78.4266 48.4996 77.4599 49.4663 77.4599 50.6589C77.4599 51.8515 78.4266 52.8182 79.6192 52.8182C80.8118 52.8182 81.7785 51.8515 81.7785 50.6589C81.7785 49.4663 80.8118 48.4996 79.6192 48.4996Z" fill="black"/>
<path d="M144.71 85.5V68.7H151.982C153.486 68.7 154.782 68.948 155.87 69.444C156.958 69.924 157.798 70.62 158.39 71.532C158.982 72.444 159.278 73.532 159.278 74.796C159.278 76.044 158.982 77.124 158.39 78.036C157.798 78.948 156.958 79.652 155.87 80.148C154.782 80.628 153.486 80.868 151.982 80.868H146.87L148.598 79.116V85.5H144.71ZM148.598 79.548L146.87 77.7H151.766C152.966 77.7 153.862 77.444 154.454 76.932C155.046 76.42 155.342 75.708 155.342 74.796C155.342 73.868 155.046 73.148 154.454 72.636C153.862 72.124 152.966 71.868 151.766 71.868H146.87L148.598 70.02V79.548ZM166.23 85.5V78.636L167.118 80.988L159.726 68.7H163.854L169.518 78.132H167.142L172.83 68.7H176.646L169.254 80.988L170.118 78.636V85.5H166.23ZM181.424 85.5V71.868H176.048V68.7H190.688V71.868H185.312V85.5H181.424ZM204.3 68.7H208.188V85.5H204.3V68.7ZM196.668 85.5H192.78V68.7H196.668V85.5ZM204.588 78.612H196.38V75.324H204.588V78.612ZM220.323 85.788C218.995 85.788 217.763 85.572 216.627 85.14C215.507 84.708 214.531 84.1 213.699 83.316C212.883 82.532 212.243 81.612 211.779 80.556C211.331 79.5 211.107 78.348 211.107 77.1C211.107 75.852 211.331 74.7 211.779 73.644C212.243 72.588 212.891 71.668 213.723 70.884C214.555 70.1 215.531 69.492 216.651 69.06C217.771 68.628 218.987 68.412 220.299 68.412C221.627 68.412 222.843 68.628 223.947 69.06C225.067 69.492 226.035 70.1 226.851 70.884C227.683 71.668 228.331 72.588 228.795 73.644C229.259 74.684 229.491 75.836 229.491 77.1C229.491 78.348 229.259 79.508 228.795 80.58C228.331 81.636 227.683 82.556 226.851 83.34C226.035 84.108 225.067 84.708 223.947 85.14C222.843 85.572 221.635 85.788 220.323 85.788ZM220.299 82.476C221.051 82.476 221.739 82.348 222.363 82.092C223.003 81.836 223.563 81.468 224.043 80.988C224.523 80.508 224.891 79.94 225.147 79.284C225.419 78.628 225.555 77.9 225.555 77.1C225.555 76.3 225.419 75.572 225.147 74.916C224.891 74.26 224.523 73.692 224.043 73.212C223.579 72.732 223.027 72.364 222.387 72.108C221.747 71.852 221.051 71.724 220.299 71.724C219.547 71.724 218.851 71.852 218.211 72.108C217.587 72.364 217.035 72.732 216.555 73.212C216.075 73.692 215.699 74.26 215.427 74.916C215.171 75.572 215.043 76.3 215.043 77.1C215.043 77.884 215.171 78.612 215.427 79.284C215.699 79.94 216.067 80.508 216.531 80.988C217.011 81.468 217.571 81.836 218.211 82.092C218.851 82.348 219.547 82.476 220.299 82.476ZM232.413 85.5V68.7H235.629L245.541 80.796H243.981V68.7H247.821V85.5H244.629L234.693 73.404H236.253V85.5H232.413Z" fill="black"/>
<path d="M146.749 54.5098H144.587L144.576 53.6016H146.538C146.863 53.6016 147.146 53.5469 147.388 53.4375C147.63 53.3281 147.818 53.1719 147.951 52.9688C148.087 52.7617 148.156 52.5156 148.156 52.2305C148.156 51.918 148.095 51.6641 147.974 51.4688C147.857 51.2695 147.675 51.125 147.429 51.0352C147.187 50.9414 146.878 50.8945 146.503 50.8945H144.839V58.5H143.708V49.9688H146.503C146.941 49.9688 147.331 50.0137 147.675 50.1035C148.019 50.1895 148.31 50.3262 148.548 50.5137C148.79 50.6973 148.974 50.9316 149.099 51.2168C149.224 51.502 149.286 51.8438 149.286 52.2422C149.286 52.5938 149.197 52.9121 149.017 53.1973C148.837 53.4785 148.587 53.709 148.267 53.8887C147.951 54.0684 147.579 54.1836 147.154 54.2344L146.749 54.5098ZM146.697 58.5H144.142L144.781 57.5801H146.697C147.056 57.5801 147.361 57.5176 147.611 57.3926C147.865 57.2676 148.058 57.0918 148.191 56.8652C148.324 56.6348 148.39 56.3633 148.39 56.0508C148.39 55.7344 148.333 55.4609 148.22 55.2305C148.107 55 147.929 54.8223 147.687 54.6973C147.445 54.5723 147.132 54.5098 146.749 54.5098H145.138L145.15 53.6016H147.353L147.593 53.9297C148.003 53.9648 148.351 54.082 148.636 54.2812C148.921 54.4766 149.138 54.7266 149.286 55.0312C149.439 55.3359 149.515 55.6719 149.515 56.0391C149.515 56.5703 149.398 57.0195 149.163 57.3867C148.933 57.75 148.607 58.0273 148.185 58.2188C147.763 58.4062 147.267 58.5 146.697 58.5ZM154.759 57.416V54.1523C154.759 53.9023 154.708 53.6855 154.607 53.502C154.509 53.3145 154.361 53.1699 154.161 53.0684C153.962 52.9668 153.716 52.916 153.423 52.916C153.15 52.916 152.909 52.9629 152.702 53.0566C152.499 53.1504 152.339 53.2734 152.222 53.4258C152.109 53.5781 152.052 53.7422 152.052 53.918H150.968C150.968 53.6914 151.027 53.4668 151.144 53.2441C151.261 53.0215 151.429 52.8203 151.648 52.6406C151.87 52.457 152.136 52.3125 152.445 52.207C152.757 52.0977 153.105 52.043 153.488 52.043C153.949 52.043 154.355 52.1211 154.706 52.2773C155.062 52.4336 155.339 52.6699 155.538 52.9863C155.742 53.2988 155.843 53.6914 155.843 54.1641V57.1172C155.843 57.3281 155.861 57.5527 155.896 57.791C155.935 58.0293 155.992 58.2344 156.066 58.4062V58.5H154.935C154.88 58.375 154.837 58.209 154.806 58.002C154.775 57.791 154.759 57.5957 154.759 57.416ZM154.947 54.6562L154.958 55.418H153.863C153.554 55.418 153.279 55.4434 153.036 55.4941C152.794 55.541 152.591 55.6133 152.427 55.7109C152.263 55.8086 152.138 55.9316 152.052 56.0801C151.966 56.2246 151.923 56.3945 151.923 56.5898C151.923 56.7891 151.968 56.9707 152.058 57.1348C152.148 57.2988 152.283 57.4297 152.462 57.5273C152.646 57.6211 152.87 57.668 153.136 57.668C153.468 57.668 153.761 57.5977 154.015 57.457C154.269 57.3164 154.47 57.1445 154.618 56.9414C154.771 56.7383 154.853 56.541 154.865 56.3496L155.327 56.8711C155.3 57.0352 155.226 57.2168 155.105 57.416C154.984 57.6152 154.822 57.8066 154.618 57.9902C154.419 58.1699 154.181 58.3203 153.904 58.4414C153.63 58.5586 153.322 58.6172 152.978 58.6172C152.548 58.6172 152.171 58.5332 151.847 58.3652C151.527 58.1973 151.277 57.9727 151.097 57.6914C150.921 57.4062 150.833 57.0879 150.833 56.7363C150.833 56.3965 150.9 56.0977 151.033 55.8398C151.165 55.5781 151.357 55.3613 151.607 55.1895C151.857 55.0137 152.158 54.8809 152.509 54.791C152.861 54.7012 153.253 54.6562 153.687 54.6562H154.947ZM160.085 57.7266C160.343 57.7266 160.581 57.6738 160.8 57.5684C161.019 57.4629 161.199 57.3184 161.339 57.1348C161.48 56.9473 161.56 56.7344 161.579 56.4961H162.611C162.591 56.8711 162.464 57.2207 162.23 57.5449C161.999 57.8652 161.697 58.125 161.322 58.3242C160.947 58.5195 160.534 58.6172 160.085 58.6172C159.609 58.6172 159.193 58.5332 158.837 58.3652C158.486 58.1973 158.193 57.9668 157.958 57.6738C157.728 57.3809 157.554 57.0449 157.437 56.666C157.324 56.2832 157.267 55.8789 157.267 55.4531V55.207C157.267 54.7812 157.324 54.3789 157.437 54C157.554 53.6172 157.728 53.2793 157.958 52.9863C158.193 52.6934 158.486 52.4629 158.837 52.2949C159.193 52.127 159.609 52.043 160.085 52.043C160.581 52.043 161.015 52.1445 161.386 52.3477C161.757 52.5469 162.048 52.8203 162.259 53.168C162.474 53.5117 162.591 53.9023 162.611 54.3398H161.579C161.56 54.0781 161.486 53.8418 161.357 53.6309C161.232 53.4199 161.06 53.252 160.841 53.127C160.626 52.998 160.374 52.9336 160.085 52.9336C159.753 52.9336 159.474 53 159.247 53.1328C159.025 53.2617 158.847 53.4375 158.714 53.6602C158.585 53.8789 158.492 54.123 158.433 54.3926C158.378 54.6582 158.351 54.9297 158.351 55.207V55.4531C158.351 55.7305 158.378 56.0039 158.433 56.2734C158.488 56.543 158.579 56.7871 158.708 57.0059C158.841 57.2246 159.019 57.4004 159.242 57.5332C159.468 57.6621 159.749 57.7266 160.085 57.7266ZM164.919 49.5V58.5H163.829V49.5H164.919ZM168.792 52.1602L166.027 55.1191L164.48 56.7246L164.392 55.5703L165.499 54.2461L167.468 52.1602H168.792ZM167.802 58.5L165.54 55.4766L166.103 54.5098L169.079 58.5H167.802ZM172.167 54.4277V55.3184H169.308V54.4277H172.167ZM178.812 57.5801V58.5H174.294V57.5801H178.812ZM174.523 49.9688V58.5H173.392V49.9688H174.523ZM178.214 53.6367V54.5566H174.294V53.6367H178.214ZM178.753 49.9688V50.8945H174.294V49.9688H178.753ZM181.132 53.5137V58.5H180.048V52.1602H181.074L181.132 53.5137ZM180.874 55.0898L180.423 55.0723C180.427 54.6387 180.492 54.2383 180.617 53.8711C180.742 53.5 180.917 53.1777 181.144 52.9043C181.37 52.6309 181.64 52.4199 181.952 52.2715C182.269 52.1191 182.618 52.043 183.001 52.043C183.314 52.043 183.595 52.0859 183.845 52.1719C184.095 52.2539 184.308 52.3867 184.484 52.5703C184.663 52.7539 184.8 52.9922 184.894 53.2852C184.988 53.5742 185.034 53.9277 185.034 54.3457V58.5H183.945V54.334C183.945 54.002 183.896 53.7363 183.798 53.5371C183.701 53.334 183.558 53.1875 183.37 53.0977C183.183 53.0039 182.952 52.957 182.679 52.957C182.409 52.957 182.163 53.0137 181.941 53.127C181.722 53.2402 181.533 53.3965 181.372 53.5957C181.216 53.7949 181.093 54.0234 181.003 54.2812C180.917 54.5352 180.874 54.8047 180.874 55.0898ZM190.677 57.2695V49.5H191.767V58.5H190.771L190.677 57.2695ZM186.411 55.4004V55.2773C186.411 54.793 186.47 54.3535 186.587 53.959C186.708 53.5605 186.878 53.2188 187.097 52.9336C187.32 52.6484 187.583 52.4297 187.888 52.2773C188.197 52.1211 188.54 52.043 188.919 52.043C189.318 52.043 189.665 52.1133 189.962 52.2539C190.263 52.3906 190.517 52.5918 190.724 52.8574C190.935 53.1191 191.101 53.4355 191.222 53.8066C191.343 54.1777 191.427 54.5977 191.474 55.0664V55.6055C191.431 56.0703 191.347 56.4883 191.222 56.8594C191.101 57.2305 190.935 57.5469 190.724 57.8086C190.517 58.0703 190.263 58.2715 189.962 58.4121C189.661 58.5488 189.31 58.6172 188.908 58.6172C188.536 58.6172 188.197 58.5371 187.888 58.377C187.583 58.2168 187.32 57.9922 187.097 57.7031C186.878 57.4141 186.708 57.0742 186.587 56.6836C186.47 56.2891 186.411 55.8613 186.411 55.4004ZM187.501 55.2773V55.4004C187.501 55.7168 187.533 56.0137 187.595 56.291C187.661 56.5684 187.763 56.8125 187.9 57.0234C188.036 57.2344 188.21 57.4004 188.421 57.5215C188.632 57.6387 188.884 57.6973 189.177 57.6973C189.536 57.6973 189.831 57.6211 190.062 57.4688C190.296 57.3164 190.484 57.1152 190.624 56.8652C190.765 56.6152 190.874 56.3438 190.952 56.0508V54.6387C190.906 54.4238 190.837 54.2168 190.747 54.0176C190.661 53.8145 190.548 53.6348 190.408 53.4785C190.271 53.3184 190.101 53.1914 189.898 53.0977C189.699 53.0039 189.462 52.957 189.189 52.957C188.892 52.957 188.636 53.0195 188.421 53.1445C188.21 53.2656 188.036 53.4336 187.9 53.6484C187.763 53.8594 187.661 54.1055 187.595 54.3867C187.533 54.6641 187.501 54.9609 187.501 55.2773Z" fill="black"/>
</svg>
