<svg width="310" height="139" viewBox="0 0 310 139" fill="none" xmlns="http://www.w3.org/2000/svg">
<rect width="310" height="139" fill="white"/>
<g clip-path="url(#clip0_1_713)">
<path d="M71 49.8219C77.4125 49.8219 78.1719 49.85 80.6938 49.9625C83.0375 50.0656 84.3031 50.4594 85.1469 50.7875C86.2625 51.2188 87.0688 51.7438 87.9031 52.5781C88.7469 53.4219 89.2625 54.2188 89.6938 55.3344C90.0219 56.1781 90.4156 57.4531 90.5188 59.7875C90.6313 62.3187 90.6594 63.0781 90.6594 69.4813C90.6594 75.8938 90.6313 76.6531 90.5188 79.175C90.4156 81.5188 90.0219 82.7844 89.6938 83.6281C89.2625 84.7438 88.7375 85.55 87.9031 86.3844C87.0594 87.2281 86.2625 87.7438 85.1469 88.175C84.3031 88.5031 83.0281 88.8969 80.6938 89C78.1625 89.1125 77.4031 89.1406 71 89.1406C64.5875 89.1406 63.8281 89.1125 61.3063 89C58.9625 88.8969 57.6969 88.5031 56.8531 88.175C55.7375 87.7438 54.9313 87.2188 54.0969 86.3844C53.2531 85.5406 52.7375 84.7438 52.3063 83.6281C51.9781 82.7844 51.5844 81.5094 51.4813 79.175C51.3688 76.6438 51.3406 75.8844 51.3406 69.4813C51.3406 63.0688 51.3688 62.3094 51.4813 59.7875C51.5844 57.4437 51.9781 56.1781 52.3063 55.3344C52.7375 54.2188 53.2625 53.4125 54.0969 52.5781C54.9406 51.7344 55.7375 51.2188 56.8531 50.7875C57.6969 50.4594 58.9719 50.0656 61.3063 49.9625C63.8281 49.85 64.5875 49.8219 71 49.8219ZM71 45.5C64.4844 45.5 63.6688 45.5281 61.1094 45.6406C58.5594 45.7531 56.8063 46.1656 55.2875 46.7562C53.7031 47.375 52.3625 48.1906 51.0313 49.5312C49.6906 50.8625 48.875 52.2031 48.2563 53.7781C47.6656 55.3063 47.2531 57.05 47.1406 59.6C47.0281 62.1687 47 62.9844 47 69.5C47 76.0156 47.0281 76.8313 47.1406 79.3906C47.2531 81.9406 47.6656 83.6938 48.2563 85.2125C48.875 86.7969 49.6906 88.1375 51.0313 89.4688C52.3625 90.8 53.7031 91.625 55.2781 92.2344C56.8063 92.825 58.55 93.2375 61.1 93.35C63.6594 93.4625 64.475 93.4906 70.9906 93.4906C77.5063 93.4906 78.3219 93.4625 80.8813 93.35C83.4313 93.2375 85.1844 92.825 86.7031 92.2344C88.2781 91.625 89.6188 90.8 90.95 89.4688C92.2813 88.1375 93.1063 86.7969 93.7156 85.2219C94.3063 83.6938 94.7188 81.95 94.8313 79.4C94.9438 76.8406 94.9719 76.025 94.9719 69.5094C94.9719 62.9938 94.9438 62.1781 94.8313 59.6188C94.7188 57.0688 94.3063 55.3156 93.7156 53.7969C93.125 52.2031 92.3094 50.8625 90.9688 49.5312C89.6375 48.2 88.2969 47.375 86.7219 46.7656C85.1938 46.175 83.45 45.7625 80.9 45.65C78.3313 45.5281 77.5156 45.5 71 45.5Z" fill="black"/>
<path d="M71 57.1719C64.1938 57.1719 58.6719 62.6938 58.6719 69.5C58.6719 76.3062 64.1938 81.8281 71 81.8281C77.8062 81.8281 83.3281 76.3062 83.3281 69.5C83.3281 62.6938 77.8062 57.1719 71 57.1719ZM71 77.4969C66.5844 77.4969 63.0031 73.9156 63.0031 69.5C63.0031 65.0844 66.5844 61.5031 71 61.5031C75.4156 61.5031 78.9969 65.0844 78.9969 69.5C78.9969 73.9156 75.4156 77.4969 71 77.4969Z" fill="black"/>
<path d="M86.6937 56.6843C86.6937 58.278 85.4 59.5624 83.8156 59.5624C82.2219 59.5624 80.9375 58.2687 80.9375 56.6843C80.9375 55.0905 82.2313 53.8062 83.8156 53.8062C85.4 53.8062 86.6937 55.0999 86.6937 56.6843Z" fill="black"/>
</g>
<path d="M126.494 84.5V71.9H128.906L134.27 80.792H132.992L138.266 71.9H140.66L140.696 84.5H137.96L137.942 76.094H138.446L134.234 83.168H132.92L128.618 76.094H129.23V84.5H126.494ZM149.805 84.716C148.809 84.716 147.885 84.554 147.033 84.23C146.193 83.906 145.461 83.45 144.837 82.862C144.225 82.274 143.745 81.584 143.397 80.792C143.061 80 142.893 79.136 142.893 78.2C142.893 77.264 143.061 76.4 143.397 75.608C143.745 74.816 144.231 74.126 144.855 73.538C145.479 72.95 146.211 72.494 147.051 72.17C147.891 71.846 148.803 71.684 149.787 71.684C150.783 71.684 151.695 71.846 152.523 72.17C153.363 72.494 154.089 72.95 154.701 73.538C155.325 74.126 155.811 74.816 156.159 75.608C156.507 76.388 156.681 77.252 156.681 78.2C156.681 79.136 156.507 80.006 156.159 80.81C155.811 81.602 155.325 82.292 154.701 82.88C154.089 83.456 153.363 83.906 152.523 84.23C151.695 84.554 150.789 84.716 149.805 84.716ZM149.787 82.232C150.351 82.232 150.867 82.136 151.335 81.944C151.815 81.752 152.235 81.476 152.595 81.116C152.955 80.756 153.231 80.33 153.423 79.838C153.627 79.346 153.729 78.8 153.729 78.2C153.729 77.6 153.627 77.054 153.423 76.562C153.231 76.07 152.955 75.644 152.595 75.284C152.247 74.924 151.833 74.648 151.353 74.456C150.873 74.264 150.351 74.168 149.787 74.168C149.223 74.168 148.701 74.264 148.221 74.456C147.753 74.648 147.339 74.924 146.979 75.284C146.619 75.644 146.337 76.07 146.133 76.562C145.941 77.054 145.845 77.6 145.845 78.2C145.845 78.788 145.941 79.334 146.133 79.838C146.337 80.33 146.613 80.756 146.961 81.116C147.321 81.476 147.741 81.752 148.221 81.944C148.701 82.136 149.223 82.232 149.787 82.232ZM164.957 84.716C163.961 84.716 163.043 84.56 162.203 84.248C161.375 83.924 160.649 83.468 160.025 82.88C159.413 82.292 158.933 81.602 158.585 80.81C158.249 80.018 158.081 79.148 158.081 78.2C158.081 77.252 158.249 76.382 158.585 75.59C158.933 74.798 159.419 74.108 160.043 73.52C160.667 72.932 161.399 72.482 162.239 72.17C163.079 71.846 164.003 71.684 165.011 71.684C166.127 71.684 167.129 71.87 168.017 72.242C168.917 72.614 169.673 73.154 170.285 73.862L168.413 75.59C167.957 75.11 167.459 74.756 166.919 74.528C166.379 74.288 165.791 74.168 165.155 74.168C164.543 74.168 163.985 74.264 163.481 74.456C162.977 74.648 162.539 74.924 162.167 75.284C161.807 75.644 161.525 76.07 161.321 76.562C161.129 77.054 161.033 77.6 161.033 78.2C161.033 78.788 161.129 79.328 161.321 79.82C161.525 80.312 161.807 80.744 162.167 81.116C162.539 81.476 162.971 81.752 163.463 81.944C163.967 82.136 164.519 82.232 165.119 82.232C165.695 82.232 166.253 82.142 166.793 81.962C167.345 81.77 167.879 81.452 168.395 81.008L170.051 83.114C169.367 83.63 168.569 84.026 167.657 84.302C166.757 84.578 165.857 84.716 164.957 84.716ZM167.387 82.736V78.002H170.051V83.114L167.387 82.736ZM172.76 84.5V71.9H178.214C179.342 71.9 180.314 72.086 181.13 72.458C181.946 72.818 182.576 73.34 183.02 74.024C183.464 74.708 183.686 75.524 183.686 76.472C183.686 77.408 183.464 78.218 183.02 78.902C182.576 79.574 181.946 80.09 181.13 80.45C180.314 80.81 179.342 80.99 178.214 80.99H174.38L175.676 79.712V84.5H172.76ZM180.77 84.5L177.62 79.928H180.734L183.92 84.5H180.77ZM175.676 80.036L174.38 78.668H178.052C178.952 78.668 179.624 78.476 180.068 78.092C180.512 77.696 180.734 77.156 180.734 76.472C180.734 75.776 180.512 75.236 180.068 74.852C179.624 74.468 178.952 74.276 178.052 74.276H174.38L175.676 72.89V80.036ZM184.34 84.5L189.956 71.9H192.836L198.47 84.5H195.41L190.802 73.376H191.954L187.328 84.5H184.34ZM187.148 81.8L187.922 79.586H194.402L195.194 81.8H187.148ZM199.777 84.5V71.9H205.231C206.359 71.9 207.331 72.086 208.147 72.458C208.963 72.818 209.593 73.34 210.037 74.024C210.481 74.708 210.703 75.524 210.703 76.472C210.703 77.408 210.481 78.218 210.037 78.902C209.593 79.586 208.963 80.114 208.147 80.486C207.331 80.846 206.359 81.026 205.231 81.026H201.397L202.693 79.712V84.5H199.777ZM202.693 80.036L201.397 78.65H205.069C205.969 78.65 206.641 78.458 207.085 78.074C207.529 77.69 207.751 77.156 207.751 76.472C207.751 75.776 207.529 75.236 207.085 74.852C206.641 74.468 205.969 74.276 205.069 74.276H201.397L202.693 72.89V80.036ZM221.425 71.9H224.341V84.5H221.425V71.9ZM215.701 84.5H212.785V71.9H215.701V84.5ZM221.641 79.334H215.485V76.868H221.641V79.334ZM227.322 84.5V71.9H230.238V82.124H236.556V84.5H227.322ZM238.185 84.5V71.9H241.101V82.124H247.419V84.5H238.185ZM254.958 84.716C253.962 84.716 253.038 84.554 252.186 84.23C251.346 83.906 250.614 83.45 249.99 82.862C249.378 82.274 248.898 81.584 248.55 80.792C248.214 80 248.046 79.136 248.046 78.2C248.046 77.264 248.214 76.4 248.55 75.608C248.898 74.816 249.384 74.126 250.008 73.538C250.632 72.95 251.364 72.494 252.204 72.17C253.044 71.846 253.956 71.684 254.94 71.684C255.936 71.684 256.848 71.846 257.676 72.17C258.516 72.494 259.242 72.95 259.854 73.538C260.478 74.126 260.964 74.816 261.312 75.608C261.66 76.388 261.834 77.252 261.834 78.2C261.834 79.136 261.66 80.006 261.312 80.81C260.964 81.602 260.478 82.292 259.854 82.88C259.242 83.456 258.516 83.906 257.676 84.23C256.848 84.554 255.942 84.716 254.958 84.716ZM254.94 82.232C255.504 82.232 256.02 82.136 256.488 81.944C256.968 81.752 257.388 81.476 257.748 81.116C258.108 80.756 258.384 80.33 258.576 79.838C258.78 79.346 258.882 78.8 258.882 78.2C258.882 77.6 258.78 77.054 258.576 76.562C258.384 76.07 258.108 75.644 257.748 75.284C257.4 74.924 256.986 74.648 256.506 74.456C256.026 74.264 255.504 74.168 254.94 74.168C254.376 74.168 253.854 74.264 253.374 74.456C252.906 74.648 252.492 74.924 252.132 75.284C251.772 75.644 251.49 76.07 251.286 76.562C251.094 77.054 250.998 77.6 250.998 78.2C250.998 78.788 251.094 79.334 251.286 79.838C251.49 80.33 251.766 80.756 252.114 81.116C252.474 81.476 252.894 81.752 253.374 81.944C253.854 82.136 254.376 82.232 254.94 82.232Z" fill="black"/>
<path d="M127.203 51.9688V60.5H126.072V51.9688H127.203ZM130.18 55.5137V60.5H129.096V54.1602H130.121L130.18 55.5137ZM129.922 57.0898L129.471 57.0723C129.475 56.6387 129.539 56.2383 129.664 55.8711C129.789 55.5 129.965 55.1777 130.191 54.9043C130.418 54.6309 130.688 54.4199 131 54.2715C131.316 54.1191 131.666 54.043 132.049 54.043C132.361 54.043 132.643 54.0859 132.893 54.1719C133.143 54.2539 133.355 54.3867 133.531 54.5703C133.711 54.7539 133.848 54.9922 133.941 55.2852C134.035 55.5742 134.082 55.9277 134.082 56.3457V60.5H132.992V56.334C132.992 56.002 132.943 55.7363 132.846 55.5371C132.748 55.334 132.605 55.1875 132.418 55.0977C132.23 55.0039 132 54.957 131.727 54.957C131.457 54.957 131.211 55.0137 130.988 55.127C130.77 55.2402 130.58 55.3965 130.42 55.5957C130.264 55.7949 130.141 56.0234 130.051 56.2812C129.965 56.5352 129.922 56.8047 129.922 57.0898ZM139.42 58.8184C139.42 58.6621 139.385 58.5176 139.314 58.3848C139.248 58.248 139.109 58.125 138.898 58.0156C138.691 57.9023 138.379 57.8047 137.961 57.7227C137.609 57.6484 137.291 57.5605 137.006 57.459C136.725 57.3574 136.484 57.2344 136.285 57.0898C136.09 56.9453 135.939 56.7754 135.834 56.5801C135.729 56.3848 135.676 56.1562 135.676 55.8945C135.676 55.6445 135.73 55.4082 135.84 55.1855C135.953 54.9629 136.111 54.7656 136.314 54.5938C136.521 54.4219 136.77 54.2871 137.059 54.1895C137.348 54.0918 137.67 54.043 138.025 54.043C138.533 54.043 138.967 54.1328 139.326 54.3125C139.686 54.4922 139.961 54.7324 140.152 55.0332C140.344 55.3301 140.439 55.6602 140.439 56.0234H139.355C139.355 55.8477 139.303 55.6777 139.197 55.5137C139.096 55.3457 138.945 55.207 138.746 55.0977C138.551 54.9883 138.311 54.9336 138.025 54.9336C137.725 54.9336 137.48 54.9805 137.293 55.0742C137.109 55.1641 136.975 55.2793 136.889 55.4199C136.807 55.5605 136.766 55.709 136.766 55.8652C136.766 55.9824 136.785 56.0879 136.824 56.1816C136.867 56.2715 136.941 56.3555 137.047 56.4336C137.152 56.5078 137.301 56.5781 137.492 56.6445C137.684 56.7109 137.928 56.7773 138.225 56.8438C138.744 56.9609 139.172 57.1016 139.508 57.2656C139.844 57.4297 140.094 57.6309 140.258 57.8691C140.422 58.1074 140.504 58.3965 140.504 58.7363C140.504 59.0137 140.445 59.2676 140.328 59.498C140.215 59.7285 140.049 59.9277 139.83 60.0957C139.615 60.2598 139.357 60.3887 139.057 60.4824C138.76 60.5723 138.426 60.6172 138.055 60.6172C137.496 60.6172 137.023 60.5176 136.637 60.3184C136.25 60.1191 135.957 59.8613 135.758 59.5449C135.559 59.2285 135.459 58.8945 135.459 58.543H136.549C136.564 58.8398 136.65 59.0762 136.807 59.252C136.963 59.4238 137.154 59.5469 137.381 59.6211C137.607 59.6914 137.832 59.7266 138.055 59.7266C138.352 59.7266 138.6 59.6875 138.799 59.6094C139.002 59.5312 139.156 59.4238 139.262 59.2871C139.367 59.1504 139.42 58.9941 139.42 58.8184ZM144.582 54.1602V54.9922H141.154V54.1602H144.582ZM142.314 52.6191H143.398V58.9297C143.398 59.1445 143.432 59.3066 143.498 59.416C143.564 59.5254 143.65 59.5977 143.756 59.6328C143.861 59.668 143.975 59.6855 144.096 59.6855C144.186 59.6855 144.279 59.6777 144.377 59.6621C144.479 59.6426 144.555 59.627 144.605 59.6152L144.611 60.5C144.525 60.5273 144.412 60.5527 144.271 60.5762C144.135 60.6035 143.969 60.6172 143.773 60.6172C143.508 60.6172 143.264 60.5645 143.041 60.459C142.818 60.3535 142.641 60.1777 142.508 59.9316C142.379 59.6816 142.314 59.3457 142.314 58.9238V52.6191ZM149.592 59.416V56.1523C149.592 55.9023 149.541 55.6855 149.439 55.502C149.342 55.3145 149.193 55.1699 148.994 55.0684C148.795 54.9668 148.549 54.916 148.256 54.916C147.982 54.916 147.742 54.9629 147.535 55.0566C147.332 55.1504 147.172 55.2734 147.055 55.4258C146.941 55.5781 146.885 55.7422 146.885 55.918H145.801C145.801 55.6914 145.859 55.4668 145.977 55.2441C146.094 55.0215 146.262 54.8203 146.48 54.6406C146.703 54.457 146.969 54.3125 147.277 54.207C147.59 54.0977 147.938 54.043 148.32 54.043C148.781 54.043 149.188 54.1211 149.539 54.2773C149.895 54.4336 150.172 54.6699 150.371 54.9863C150.574 55.2988 150.676 55.6914 150.676 56.1641V59.1172C150.676 59.3281 150.693 59.5527 150.729 59.791C150.768 60.0293 150.824 60.2344 150.898 60.4062V60.5H149.768C149.713 60.375 149.67 60.209 149.639 60.002C149.607 59.791 149.592 59.5957 149.592 59.416ZM149.779 56.6562L149.791 57.418H148.695C148.387 57.418 148.111 57.4434 147.869 57.4941C147.627 57.541 147.424 57.6133 147.26 57.7109C147.096 57.8086 146.971 57.9316 146.885 58.0801C146.799 58.2246 146.756 58.3945 146.756 58.5898C146.756 58.7891 146.801 58.9707 146.891 59.1348C146.98 59.2988 147.115 59.4297 147.295 59.5273C147.479 59.6211 147.703 59.668 147.969 59.668C148.301 59.668 148.594 59.5977 148.848 59.457C149.102 59.3164 149.303 59.1445 149.451 58.9414C149.604 58.7383 149.686 58.541 149.697 58.3496L150.16 58.8711C150.133 59.0352 150.059 59.2168 149.938 59.416C149.816 59.6152 149.654 59.8066 149.451 59.9902C149.252 60.1699 149.014 60.3203 148.736 60.4414C148.463 60.5586 148.154 60.6172 147.811 60.6172C147.381 60.6172 147.004 60.5332 146.68 60.3652C146.359 60.1973 146.109 59.9727 145.93 59.6914C145.754 59.4062 145.666 59.0879 145.666 58.7363C145.666 58.3965 145.732 58.0977 145.865 57.8398C145.998 57.5781 146.189 57.3613 146.439 57.1895C146.689 57.0137 146.99 56.8809 147.342 56.791C147.693 56.7012 148.086 56.6562 148.52 56.6562H149.779ZM156.488 54.1602H157.473V60.3652C157.473 60.9238 157.359 61.4004 157.133 61.7949C156.906 62.1895 156.59 62.4883 156.184 62.6914C155.781 62.8984 155.316 63.002 154.789 63.002C154.57 63.002 154.312 62.9668 154.016 62.8965C153.723 62.8301 153.434 62.7148 153.148 62.5508C152.867 62.3906 152.631 62.1738 152.439 61.9004L153.008 61.2559C153.273 61.5762 153.551 61.7988 153.84 61.9238C154.133 62.0488 154.422 62.1113 154.707 62.1113C155.051 62.1113 155.348 62.0469 155.598 61.918C155.848 61.7891 156.041 61.5977 156.178 61.3438C156.318 61.0938 156.389 60.7852 156.389 60.418V55.5547L156.488 54.1602ZM152.123 57.4004V57.2773C152.123 56.793 152.18 56.3535 152.293 55.959C152.41 55.5605 152.576 55.2188 152.791 54.9336C153.01 54.6484 153.273 54.4297 153.582 54.2773C153.891 54.1211 154.238 54.043 154.625 54.043C155.023 54.043 155.371 54.1133 155.668 54.2539C155.969 54.3906 156.223 54.5918 156.43 54.8574C156.641 55.1191 156.807 55.4355 156.928 55.8066C157.049 56.1777 157.133 56.5977 157.18 57.0664V57.6055C157.137 58.0703 157.053 58.4883 156.928 58.8594C156.807 59.2305 156.641 59.5469 156.43 59.8086C156.223 60.0703 155.969 60.2715 155.668 60.4121C155.367 60.5488 155.016 60.6172 154.613 60.6172C154.234 60.6172 153.891 60.5371 153.582 60.377C153.277 60.2168 153.016 59.9922 152.797 59.7031C152.578 59.4141 152.41 59.0742 152.293 58.6836C152.18 58.2891 152.123 57.8613 152.123 57.4004ZM153.207 57.2773V57.4004C153.207 57.7168 153.238 58.0137 153.301 58.291C153.367 58.5684 153.467 58.8125 153.6 59.0234C153.736 59.2344 153.91 59.4004 154.121 59.5215C154.332 59.6387 154.584 59.6973 154.877 59.6973C155.236 59.6973 155.533 59.6211 155.768 59.4688C156.002 59.3164 156.188 59.1152 156.324 58.8652C156.465 58.6152 156.574 58.3438 156.652 58.0508V56.6387C156.609 56.4238 156.543 56.2168 156.453 56.0176C156.367 55.8145 156.254 55.6348 156.113 55.4785C155.977 55.3184 155.807 55.1914 155.604 55.0977C155.4 55.0039 155.162 54.957 154.889 54.957C154.592 54.957 154.336 55.0195 154.121 55.1445C153.91 55.2656 153.736 55.4336 153.6 55.6484C153.467 55.8594 153.367 56.1055 153.301 56.3867C153.238 56.6641 153.207 56.9609 153.207 57.2773ZM160.203 55.1562V60.5H159.119V54.1602H160.174L160.203 55.1562ZM162.184 54.125L162.178 55.1328C162.088 55.1133 162.002 55.1016 161.92 55.0977C161.842 55.0898 161.752 55.0859 161.65 55.0859C161.4 55.0859 161.18 55.125 160.988 55.2031C160.797 55.2812 160.635 55.3906 160.502 55.5312C160.369 55.6719 160.264 55.8398 160.186 56.0352C160.111 56.2266 160.062 56.4375 160.039 56.668L159.734 56.8438C159.734 56.4609 159.771 56.1016 159.846 55.7656C159.924 55.4297 160.043 55.1328 160.203 54.875C160.363 54.6133 160.566 54.4102 160.812 54.2656C161.062 54.1172 161.359 54.043 161.703 54.043C161.781 54.043 161.871 54.0527 161.973 54.0723C162.074 54.0879 162.145 54.1055 162.184 54.125ZM166.689 59.416V56.1523C166.689 55.9023 166.639 55.6855 166.537 55.502C166.439 55.3145 166.291 55.1699 166.092 55.0684C165.893 54.9668 165.646 54.916 165.354 54.916C165.08 54.916 164.84 54.9629 164.633 55.0566C164.43 55.1504 164.27 55.2734 164.152 55.4258C164.039 55.5781 163.982 55.7422 163.982 55.918H162.898C162.898 55.6914 162.957 55.4668 163.074 55.2441C163.191 55.0215 163.359 54.8203 163.578 54.6406C163.801 54.457 164.066 54.3125 164.375 54.207C164.688 54.0977 165.035 54.043 165.418 54.043C165.879 54.043 166.285 54.1211 166.637 54.2773C166.992 54.4336 167.27 54.6699 167.469 54.9863C167.672 55.2988 167.773 55.6914 167.773 56.1641V59.1172C167.773 59.3281 167.791 59.5527 167.826 59.791C167.865 60.0293 167.922 60.2344 167.996 60.4062V60.5H166.865C166.811 60.375 166.768 60.209 166.736 60.002C166.705 59.791 166.689 59.5957 166.689 59.416ZM166.877 56.6562L166.889 57.418H165.793C165.484 57.418 165.209 57.4434 164.967 57.4941C164.725 57.541 164.521 57.6133 164.357 57.7109C164.193 57.8086 164.068 57.9316 163.982 58.0801C163.896 58.2246 163.854 58.3945 163.854 58.5898C163.854 58.7891 163.898 58.9707 163.988 59.1348C164.078 59.2988 164.213 59.4297 164.393 59.5273C164.576 59.6211 164.801 59.668 165.066 59.668C165.398 59.668 165.691 59.5977 165.945 59.457C166.199 59.3164 166.4 59.1445 166.549 58.9414C166.701 58.7383 166.783 58.541 166.795 58.3496L167.258 58.8711C167.23 59.0352 167.156 59.2168 167.035 59.416C166.914 59.6152 166.752 59.8066 166.549 59.9902C166.35 60.1699 166.111 60.3203 165.834 60.4414C165.561 60.5586 165.252 60.6172 164.908 60.6172C164.479 60.6172 164.102 60.5332 163.777 60.3652C163.457 60.1973 163.207 59.9727 163.027 59.6914C162.852 59.4062 162.764 59.0879 162.764 58.7363C162.764 58.3965 162.83 58.0977 162.963 57.8398C163.096 57.5781 163.287 57.3613 163.537 57.1895C163.787 57.0137 164.088 56.8809 164.439 56.791C164.791 56.7012 165.184 56.6562 165.617 56.6562H166.877ZM170.557 55.4199V60.5H169.467V54.1602H170.498L170.557 55.4199ZM170.334 57.0898L169.83 57.0723C169.834 56.6387 169.891 56.2383 170 55.8711C170.109 55.5 170.271 55.1777 170.486 54.9043C170.701 54.6309 170.969 54.4199 171.289 54.2715C171.609 54.1191 171.98 54.043 172.402 54.043C172.699 54.043 172.973 54.0859 173.223 54.1719C173.473 54.2539 173.689 54.3848 173.873 54.5645C174.057 54.7441 174.199 54.9746 174.301 55.2559C174.402 55.5371 174.453 55.877 174.453 56.2754V60.5H173.369V56.3281C173.369 55.9961 173.312 55.7305 173.199 55.5312C173.09 55.332 172.934 55.1875 172.73 55.0977C172.527 55.0039 172.289 54.957 172.016 54.957C171.695 54.957 171.428 55.0137 171.213 55.127C170.998 55.2402 170.826 55.3965 170.697 55.5957C170.568 55.7949 170.475 56.0234 170.416 56.2812C170.361 56.5352 170.334 56.8047 170.334 57.0898ZM174.441 56.4922L173.715 56.7148C173.719 56.3672 173.775 56.0332 173.885 55.7129C173.998 55.3926 174.16 55.1074 174.371 54.8574C174.586 54.6074 174.85 54.4102 175.162 54.2656C175.475 54.1172 175.832 54.043 176.234 54.043C176.574 54.043 176.875 54.0879 177.137 54.1777C177.402 54.2676 177.625 54.4062 177.805 54.5938C177.988 54.7773 178.127 55.0137 178.221 55.3027C178.314 55.5918 178.361 55.9355 178.361 56.334V60.5H177.271V56.3223C177.271 55.9668 177.215 55.6914 177.102 55.4961C176.992 55.2969 176.836 55.1582 176.633 55.0801C176.434 54.998 176.195 54.957 175.918 54.957C175.68 54.957 175.469 54.998 175.285 55.0801C175.102 55.1621 174.947 55.2754 174.822 55.4199C174.697 55.5605 174.602 55.7227 174.535 55.9062C174.473 56.0898 174.441 56.2852 174.441 56.4922Z" fill="black"/>
<defs>
<clipPath id="clip0_1_713">
<rect width="48" height="48" fill="white" transform="translate(47 45.5)"/>
</clipPath>
</defs>
</svg>
