<svg width="310" height="139" viewBox="0 0 310 139" fill="none" xmlns="http://www.w3.org/2000/svg">
<rect width="310" height="139" fill="white"/>
<g clip-path="url(#clip0_2_521)">
<g clip-path="url(#clip1_2_521)">
<path d="M70.9998 53.4999L64.5998 59.8999L67.7998 63.1L74.1998 56.6999C76.8398 54.0599 81.1599 54.0599 83.7999 56.6999C86.4399 59.3399 86.4399 63.66 83.7999 66.3L77.3998 72.7L80.5999 75.9L86.9999 69.5C91.4159 65.084 91.4159 57.9159 86.9999 53.4999C82.5839 49.0839 75.4158 49.0839 70.9998 53.4999ZM74.1998 75.9L67.7998 82.3C65.1598 84.94 60.8398 84.94 58.1998 82.3C55.5598 79.66 55.5598 75.34 58.1998 72.7L64.5998 66.3L61.3998 63.1L54.9998 69.5C50.5838 73.916 50.5838 81.084 54.9998 85.5C59.4158 89.916 66.5838 89.916 70.9998 85.5L77.3998 79.1L74.1998 75.9ZM62.9998 74.3L75.7998 61.5L78.9998 64.7L66.1998 77.5L62.9998 74.3Z" fill="black"/>
</g>
</g>
<path d="M126.494 84.5V71.9H128.906L134.27 80.792H132.992L138.266 71.9H140.66L140.696 84.5H137.96L137.942 76.094H138.446L134.234 83.168H132.92L128.618 76.094H129.23V84.5H126.494ZM149.805 84.716C148.809 84.716 147.885 84.554 147.033 84.23C146.193 83.906 145.461 83.45 144.837 82.862C144.225 82.274 143.745 81.584 143.397 80.792C143.061 80 142.893 79.136 142.893 78.2C142.893 77.264 143.061 76.4 143.397 75.608C143.745 74.816 144.231 74.126 144.855 73.538C145.479 72.95 146.211 72.494 147.051 72.17C147.891 71.846 148.803 71.684 149.787 71.684C150.783 71.684 151.695 71.846 152.523 72.17C153.363 72.494 154.089 72.95 154.701 73.538C155.325 74.126 155.811 74.816 156.159 75.608C156.507 76.388 156.681 77.252 156.681 78.2C156.681 79.136 156.507 80.006 156.159 80.81C155.811 81.602 155.325 82.292 154.701 82.88C154.089 83.456 153.363 83.906 152.523 84.23C151.695 84.554 150.789 84.716 149.805 84.716ZM149.787 82.232C150.351 82.232 150.867 82.136 151.335 81.944C151.815 81.752 152.235 81.476 152.595 81.116C152.955 80.756 153.231 80.33 153.423 79.838C153.627 79.346 153.729 78.8 153.729 78.2C153.729 77.6 153.627 77.054 153.423 76.562C153.231 76.07 152.955 75.644 152.595 75.284C152.247 74.924 151.833 74.648 151.353 74.456C150.873 74.264 150.351 74.168 149.787 74.168C149.223 74.168 148.701 74.264 148.221 74.456C147.753 74.648 147.339 74.924 146.979 75.284C146.619 75.644 146.337 76.07 146.133 76.562C145.941 77.054 145.845 77.6 145.845 78.2C145.845 78.788 145.941 79.334 146.133 79.838C146.337 80.33 146.613 80.756 146.961 81.116C147.321 81.476 147.741 81.752 148.221 81.944C148.701 82.136 149.223 82.232 149.787 82.232ZM164.957 84.716C163.961 84.716 163.043 84.56 162.203 84.248C161.375 83.924 160.649 83.468 160.025 82.88C159.413 82.292 158.933 81.602 158.585 80.81C158.249 80.018 158.081 79.148 158.081 78.2C158.081 77.252 158.249 76.382 158.585 75.59C158.933 74.798 159.419 74.108 160.043 73.52C160.667 72.932 161.399 72.482 162.239 72.17C163.079 71.846 164.003 71.684 165.011 71.684C166.127 71.684 167.129 71.87 168.017 72.242C168.917 72.614 169.673 73.154 170.285 73.862L168.413 75.59C167.957 75.11 167.459 74.756 166.919 74.528C166.379 74.288 165.791 74.168 165.155 74.168C164.543 74.168 163.985 74.264 163.481 74.456C162.977 74.648 162.539 74.924 162.167 75.284C161.807 75.644 161.525 76.07 161.321 76.562C161.129 77.054 161.033 77.6 161.033 78.2C161.033 78.788 161.129 79.328 161.321 79.82C161.525 80.312 161.807 80.744 162.167 81.116C162.539 81.476 162.971 81.752 163.463 81.944C163.967 82.136 164.519 82.232 165.119 82.232C165.695 82.232 166.253 82.142 166.793 81.962C167.345 81.77 167.879 81.452 168.395 81.008L170.051 83.114C169.367 83.63 168.569 84.026 167.657 84.302C166.757 84.578 165.857 84.716 164.957 84.716ZM167.387 82.736V78.002H170.051V83.114L167.387 82.736ZM172.76 84.5V71.9H178.214C179.342 71.9 180.314 72.086 181.13 72.458C181.946 72.818 182.576 73.34 183.02 74.024C183.464 74.708 183.686 75.524 183.686 76.472C183.686 77.408 183.464 78.218 183.02 78.902C182.576 79.574 181.946 80.09 181.13 80.45C180.314 80.81 179.342 80.99 178.214 80.99H174.38L175.676 79.712V84.5H172.76ZM180.77 84.5L177.62 79.928H180.734L183.92 84.5H180.77ZM175.676 80.036L174.38 78.668H178.052C178.952 78.668 179.624 78.476 180.068 78.092C180.512 77.696 180.734 77.156 180.734 76.472C180.734 75.776 180.512 75.236 180.068 74.852C179.624 74.468 178.952 74.276 178.052 74.276H174.38L175.676 72.89V80.036ZM184.34 84.5L189.956 71.9H192.836L198.47 84.5H195.41L190.802 73.376H191.954L187.328 84.5H184.34ZM187.148 81.8L187.922 79.586H194.402L195.194 81.8H187.148ZM199.777 84.5V71.9H205.231C206.359 71.9 207.331 72.086 208.147 72.458C208.963 72.818 209.593 73.34 210.037 74.024C210.481 74.708 210.703 75.524 210.703 76.472C210.703 77.408 210.481 78.218 210.037 78.902C209.593 79.586 208.963 80.114 208.147 80.486C207.331 80.846 206.359 81.026 205.231 81.026H201.397L202.693 79.712V84.5H199.777ZM202.693 80.036L201.397 78.65H205.069C205.969 78.65 206.641 78.458 207.085 78.074C207.529 77.69 207.751 77.156 207.751 76.472C207.751 75.776 207.529 75.236 207.085 74.852C206.641 74.468 205.969 74.276 205.069 74.276H201.397L202.693 72.89V80.036ZM221.425 71.9H224.341V84.5H221.425V71.9ZM215.701 84.5H212.785V71.9H215.701V84.5ZM221.641 79.334H215.485V76.868H221.641V79.334ZM227.322 84.5V71.9H230.238V82.124H236.556V84.5H227.322ZM238.185 84.5V71.9H241.101V82.124H247.419V84.5H238.185ZM254.958 84.716C253.962 84.716 253.038 84.554 252.186 84.23C251.346 83.906 250.614 83.45 249.99 82.862C249.378 82.274 248.898 81.584 248.55 80.792C248.214 80 248.046 79.136 248.046 78.2C248.046 77.264 248.214 76.4 248.55 75.608C248.898 74.816 249.384 74.126 250.008 73.538C250.632 72.95 251.364 72.494 252.204 72.17C253.044 71.846 253.956 71.684 254.94 71.684C255.936 71.684 256.848 71.846 257.676 72.17C258.516 72.494 259.242 72.95 259.854 73.538C260.478 74.126 260.964 74.816 261.312 75.608C261.66 76.388 261.834 77.252 261.834 78.2C261.834 79.136 261.66 80.006 261.312 80.81C260.964 81.602 260.478 82.292 259.854 82.88C259.242 83.456 258.516 83.906 257.676 84.23C256.848 84.554 255.942 84.716 254.958 84.716ZM254.94 82.232C255.504 82.232 256.02 82.136 256.488 81.944C256.968 81.752 257.388 81.476 257.748 81.116C258.108 80.756 258.384 80.33 258.576 79.838C258.78 79.346 258.882 78.8 258.882 78.2C258.882 77.6 258.78 77.054 258.576 76.562C258.384 76.07 258.108 75.644 257.748 75.284C257.4 74.924 256.986 74.648 256.506 74.456C256.026 74.264 255.504 74.168 254.94 74.168C254.376 74.168 253.854 74.264 253.374 74.456C252.906 74.648 252.492 74.924 252.132 75.284C251.772 75.644 251.49 76.07 251.286 76.562C251.094 77.054 250.998 77.6 250.998 78.2C250.998 78.788 251.094 79.334 251.286 79.838C251.49 80.33 251.766 80.756 252.114 81.116C252.474 81.476 252.894 81.752 253.374 81.944C253.854 82.136 254.376 82.232 254.94 82.232Z" fill="black"/>
<path d="M130.537 58.3438C130.537 58.1445 130.506 57.9688 130.443 57.8164C130.385 57.6602 130.279 57.5195 130.127 57.3945C129.979 57.2695 129.771 57.1504 129.506 57.0371C129.244 56.9238 128.912 56.8086 128.51 56.6914C128.088 56.5664 127.707 56.4277 127.367 56.2754C127.027 56.1191 126.736 55.9414 126.494 55.7422C126.252 55.543 126.066 55.3145 125.938 55.0566C125.809 54.7988 125.744 54.5039 125.744 54.1719C125.744 53.8398 125.812 53.5332 125.949 53.252C126.086 52.9707 126.281 52.7266 126.535 52.5195C126.793 52.3086 127.1 52.1445 127.455 52.0273C127.811 51.9102 128.207 51.8516 128.645 51.8516C129.285 51.8516 129.828 51.9746 130.273 52.2207C130.723 52.4629 131.064 52.7812 131.299 53.1758C131.533 53.5664 131.65 53.9844 131.65 54.4297H130.525C130.525 54.1094 130.457 53.8262 130.32 53.5801C130.184 53.3301 129.977 53.1348 129.699 52.9941C129.422 52.8496 129.07 52.7773 128.645 52.7773C128.242 52.7773 127.91 52.8379 127.648 52.959C127.387 53.0801 127.191 53.2441 127.062 53.4512C126.938 53.6582 126.875 53.8945 126.875 54.1602C126.875 54.3398 126.912 54.5039 126.986 54.6523C127.064 54.7969 127.184 54.9316 127.344 55.0566C127.508 55.1816 127.715 55.2969 127.965 55.4023C128.219 55.5078 128.521 55.6094 128.873 55.707C129.357 55.8438 129.775 55.9961 130.127 56.1641C130.479 56.332 130.768 56.5215 130.994 56.7324C131.225 56.9395 131.395 57.1758 131.504 57.4414C131.617 57.7031 131.674 58 131.674 58.332C131.674 58.6797 131.604 58.9941 131.463 59.2754C131.322 59.5566 131.121 59.7969 130.859 59.9961C130.598 60.1953 130.283 60.3496 129.916 60.459C129.553 60.5645 129.146 60.6172 128.697 60.6172C128.303 60.6172 127.914 60.5625 127.531 60.4531C127.152 60.3438 126.807 60.1797 126.494 59.9609C126.186 59.7422 125.938 59.4727 125.75 59.1523C125.566 58.8281 125.475 58.4531 125.475 58.0273H126.6C126.6 58.3203 126.656 58.5723 126.77 58.7832C126.883 58.9902 127.037 59.1621 127.232 59.2988C127.432 59.4355 127.656 59.5371 127.906 59.6035C128.16 59.666 128.424 59.6973 128.697 59.6973C129.092 59.6973 129.426 59.6426 129.699 59.5332C129.973 59.4238 130.18 59.2676 130.32 59.0645C130.465 58.8613 130.537 58.6211 130.537 58.3438ZM132.664 57.4004V57.2656C132.664 56.8086 132.73 56.3848 132.863 55.9941C132.996 55.5996 133.188 55.2578 133.438 54.9688C133.688 54.6758 133.99 54.4492 134.346 54.2891C134.701 54.125 135.1 54.043 135.541 54.043C135.986 54.043 136.387 54.125 136.742 54.2891C137.102 54.4492 137.406 54.6758 137.656 54.9688C137.91 55.2578 138.104 55.5996 138.236 55.9941C138.369 56.3848 138.436 56.8086 138.436 57.2656V57.4004C138.436 57.8574 138.369 58.2812 138.236 58.6719C138.104 59.0625 137.91 59.4043 137.656 59.6973C137.406 59.9863 137.104 60.2129 136.748 60.377C136.396 60.5371 135.998 60.6172 135.553 60.6172C135.107 60.6172 134.707 60.5371 134.352 60.377C133.996 60.2129 133.691 59.9863 133.438 59.6973C133.188 59.4043 132.996 59.0625 132.863 58.6719C132.73 58.2812 132.664 57.8574 132.664 57.4004ZM133.748 57.2656V57.4004C133.748 57.7168 133.785 58.0156 133.859 58.2969C133.934 58.5742 134.045 58.8203 134.193 59.0352C134.346 59.25 134.535 59.4199 134.762 59.5449C134.988 59.666 135.252 59.7266 135.553 59.7266C135.85 59.7266 136.109 59.666 136.332 59.5449C136.559 59.4199 136.746 59.25 136.895 59.0352C137.043 58.8203 137.154 58.5742 137.229 58.2969C137.307 58.0156 137.346 57.7168 137.346 57.4004V57.2656C137.346 56.9531 137.307 56.6582 137.229 56.3809C137.154 56.0996 137.041 55.8516 136.889 55.6367C136.74 55.418 136.553 55.2461 136.326 55.1211C136.104 54.9961 135.842 54.9336 135.541 54.9336C135.244 54.9336 134.982 54.9961 134.756 55.1211C134.533 55.2461 134.346 55.418 134.193 55.6367C134.045 55.8516 133.934 56.0996 133.859 56.3809C133.785 56.6582 133.748 56.9531 133.748 57.2656ZM142.332 59.7266C142.59 59.7266 142.828 59.6738 143.047 59.5684C143.266 59.4629 143.445 59.3184 143.586 59.1348C143.727 58.9473 143.807 58.7344 143.826 58.4961H144.857C144.838 58.8711 144.711 59.2207 144.477 59.5449C144.246 59.8652 143.943 60.125 143.568 60.3242C143.193 60.5195 142.781 60.6172 142.332 60.6172C141.855 60.6172 141.439 60.5332 141.084 60.3652C140.732 60.1973 140.439 59.9668 140.205 59.6738C139.975 59.3809 139.801 59.0449 139.684 58.666C139.57 58.2832 139.514 57.8789 139.514 57.4531V57.207C139.514 56.7812 139.57 56.3789 139.684 56C139.801 55.6172 139.975 55.2793 140.205 54.9863C140.439 54.6934 140.732 54.4629 141.084 54.2949C141.439 54.127 141.855 54.043 142.332 54.043C142.828 54.043 143.262 54.1445 143.633 54.3477C144.004 54.5469 144.295 54.8203 144.506 55.168C144.721 55.5117 144.838 55.9023 144.857 56.3398H143.826C143.807 56.0781 143.732 55.8418 143.604 55.6309C143.479 55.4199 143.307 55.252 143.088 55.127C142.873 54.998 142.621 54.9336 142.332 54.9336C142 54.9336 141.721 55 141.494 55.1328C141.271 55.2617 141.094 55.4375 140.961 55.6602C140.832 55.8789 140.738 56.123 140.68 56.3926C140.625 56.6582 140.598 56.9297 140.598 57.207V57.4531C140.598 57.7305 140.625 58.0039 140.68 58.2734C140.734 58.543 140.826 58.7871 140.955 59.0059C141.088 59.2246 141.266 59.4004 141.488 59.5332C141.715 59.6621 141.996 59.7266 142.332 59.7266ZM147.254 54.1602V60.5H146.164V54.1602H147.254ZM146.082 52.4785C146.082 52.3027 146.135 52.1543 146.24 52.0332C146.35 51.9121 146.51 51.8516 146.721 51.8516C146.928 51.8516 147.086 51.9121 147.195 52.0332C147.309 52.1543 147.365 52.3027 147.365 52.4785C147.365 52.6465 147.309 52.791 147.195 52.9121C147.086 53.0293 146.928 53.0879 146.721 53.0879C146.51 53.0879 146.35 53.0293 146.24 52.9121C146.135 52.791 146.082 52.6465 146.082 52.4785ZM152.732 59.416V56.1523C152.732 55.9023 152.682 55.6855 152.58 55.502C152.482 55.3145 152.334 55.1699 152.135 55.0684C151.936 54.9668 151.689 54.916 151.396 54.916C151.123 54.916 150.883 54.9629 150.676 55.0566C150.473 55.1504 150.312 55.2734 150.195 55.4258C150.082 55.5781 150.025 55.7422 150.025 55.918H148.941C148.941 55.6914 149 55.4668 149.117 55.2441C149.234 55.0215 149.402 54.8203 149.621 54.6406C149.844 54.457 150.109 54.3125 150.418 54.207C150.73 54.0977 151.078 54.043 151.461 54.043C151.922 54.043 152.328 54.1211 152.68 54.2773C153.035 54.4336 153.312 54.6699 153.512 54.9863C153.715 55.2988 153.816 55.6914 153.816 56.1641V59.1172C153.816 59.3281 153.834 59.5527 153.869 59.791C153.908 60.0293 153.965 60.2344 154.039 60.4062V60.5H152.908C152.854 60.375 152.811 60.209 152.779 60.002C152.748 59.791 152.732 59.5957 152.732 59.416ZM152.92 56.6562L152.932 57.418H151.836C151.527 57.418 151.252 57.4434 151.01 57.4941C150.768 57.541 150.564 57.6133 150.4 57.7109C150.236 57.8086 150.111 57.9316 150.025 58.0801C149.939 58.2246 149.896 58.3945 149.896 58.5898C149.896 58.7891 149.941 58.9707 150.031 59.1348C150.121 59.2988 150.256 59.4297 150.436 59.5273C150.619 59.6211 150.844 59.668 151.109 59.668C151.441 59.668 151.734 59.5977 151.988 59.457C152.242 59.3164 152.443 59.1445 152.592 58.9414C152.744 58.7383 152.826 58.541 152.838 58.3496L153.301 58.8711C153.273 59.0352 153.199 59.2168 153.078 59.416C152.957 59.6152 152.795 59.8066 152.592 59.9902C152.393 60.1699 152.154 60.3203 151.877 60.4414C151.604 60.5586 151.295 60.6172 150.951 60.6172C150.521 60.6172 150.145 60.5332 149.82 60.3652C149.5 60.1973 149.25 59.9727 149.07 59.6914C148.895 59.4062 148.807 59.0879 148.807 58.7363C148.807 58.3965 148.873 58.0977 149.006 57.8398C149.139 57.5781 149.33 57.3613 149.58 57.1895C149.83 57.0137 150.131 56.8809 150.482 56.791C150.834 56.7012 151.227 56.6562 151.66 56.6562H152.92ZM156.699 51.5V60.5H155.609V51.5H156.699ZM161.938 51.9688H163.033L165.828 58.9238L168.617 51.9688H169.719L166.25 60.5H165.395L161.938 51.9688ZM161.58 51.9688H162.547L162.705 57.1719V60.5H161.58V51.9688ZM169.104 51.9688H170.07V60.5H168.945V57.1719L169.104 51.9688ZM174.523 60.6172C174.082 60.6172 173.682 60.543 173.322 60.3945C172.967 60.2422 172.66 60.0293 172.402 59.7559C172.148 59.4824 171.953 59.1582 171.816 58.7832C171.68 58.4082 171.611 57.998 171.611 57.5527V57.3066C171.611 56.791 171.688 56.332 171.84 55.9297C171.992 55.5234 172.199 55.1797 172.461 54.8984C172.723 54.6172 173.02 54.4043 173.352 54.2598C173.684 54.1152 174.027 54.043 174.383 54.043C174.836 54.043 175.227 54.1211 175.555 54.2773C175.887 54.4336 176.158 54.6523 176.369 54.9336C176.58 55.2109 176.736 55.5391 176.838 55.918C176.939 56.293 176.99 56.7031 176.99 57.1484V57.6348H172.256V56.75H175.906V56.668C175.891 56.3867 175.832 56.1133 175.73 55.8477C175.633 55.582 175.477 55.3633 175.262 55.1914C175.047 55.0195 174.754 54.9336 174.383 54.9336C174.137 54.9336 173.91 54.9863 173.703 55.0918C173.496 55.1934 173.318 55.3457 173.17 55.5488C173.021 55.752 172.906 56 172.824 56.293C172.742 56.5859 172.701 56.9238 172.701 57.3066V57.5527C172.701 57.8535 172.742 58.1367 172.824 58.4023C172.91 58.6641 173.033 58.8945 173.193 59.0938C173.357 59.293 173.555 59.4492 173.785 59.5625C174.02 59.6758 174.285 59.7324 174.582 59.7324C174.965 59.7324 175.289 59.6543 175.555 59.498C175.82 59.3418 176.053 59.1328 176.252 58.8711L176.908 59.3926C176.771 59.5996 176.598 59.7969 176.387 59.9844C176.176 60.1719 175.916 60.3242 175.607 60.4414C175.303 60.5586 174.941 60.6172 174.523 60.6172ZM182.252 59.2695V51.5H183.342V60.5H182.346L182.252 59.2695ZM177.986 57.4004V57.2773C177.986 56.793 178.045 56.3535 178.162 55.959C178.283 55.5605 178.453 55.2188 178.672 54.9336C178.895 54.6484 179.158 54.4297 179.463 54.2773C179.771 54.1211 180.115 54.043 180.494 54.043C180.893 54.043 181.24 54.1133 181.537 54.2539C181.838 54.3906 182.092 54.5918 182.299 54.8574C182.51 55.1191 182.676 55.4355 182.797 55.8066C182.918 56.1777 183.002 56.5977 183.049 57.0664V57.6055C183.006 58.0703 182.922 58.4883 182.797 58.8594C182.676 59.2305 182.51 59.5469 182.299 59.8086C182.092 60.0703 181.838 60.2715 181.537 60.4121C181.236 60.5488 180.885 60.6172 180.482 60.6172C180.111 60.6172 179.771 60.5371 179.463 60.377C179.158 60.2168 178.895 59.9922 178.672 59.7031C178.453 59.4141 178.283 59.0742 178.162 58.6836C178.045 58.2891 177.986 57.8613 177.986 57.4004ZM179.076 57.2773V57.4004C179.076 57.7168 179.107 58.0137 179.17 58.291C179.236 58.5684 179.338 58.8125 179.475 59.0234C179.611 59.2344 179.785 59.4004 179.996 59.5215C180.207 59.6387 180.459 59.6973 180.752 59.6973C181.111 59.6973 181.406 59.6211 181.637 59.4688C181.871 59.3164 182.059 59.1152 182.199 58.8652C182.34 58.6152 182.449 58.3438 182.527 58.0508V56.6387C182.48 56.4238 182.412 56.2168 182.322 56.0176C182.236 55.8145 182.123 55.6348 181.982 55.4785C181.846 55.3184 181.676 55.1914 181.473 55.0977C181.273 55.0039 181.037 54.957 180.764 54.957C180.467 54.957 180.211 55.0195 179.996 55.1445C179.785 55.2656 179.611 55.4336 179.475 55.6484C179.338 55.8594 179.236 56.1055 179.17 56.3867C179.107 56.6641 179.076 56.9609 179.076 57.2773ZM186.207 54.1602V60.5H185.117V54.1602H186.207ZM185.035 52.4785C185.035 52.3027 185.088 52.1543 185.193 52.0332C185.303 51.9121 185.463 51.8516 185.674 51.8516C185.881 51.8516 186.039 51.9121 186.148 52.0332C186.262 52.1543 186.318 52.3027 186.318 52.4785C186.318 52.6465 186.262 52.791 186.148 52.9121C186.039 53.0293 185.881 53.0879 185.674 53.0879C185.463 53.0879 185.303 53.0293 185.193 52.9121C185.088 52.791 185.035 52.6465 185.035 52.4785ZM191.686 59.416V56.1523C191.686 55.9023 191.635 55.6855 191.533 55.502C191.436 55.3145 191.287 55.1699 191.088 55.0684C190.889 54.9668 190.643 54.916 190.35 54.916C190.076 54.916 189.836 54.9629 189.629 55.0566C189.426 55.1504 189.266 55.2734 189.148 55.4258C189.035 55.5781 188.979 55.7422 188.979 55.918H187.895C187.895 55.6914 187.953 55.4668 188.07 55.2441C188.188 55.0215 188.355 54.8203 188.574 54.6406C188.797 54.457 189.062 54.3125 189.371 54.207C189.684 54.0977 190.031 54.043 190.414 54.043C190.875 54.043 191.281 54.1211 191.633 54.2773C191.988 54.4336 192.266 54.6699 192.465 54.9863C192.668 55.2988 192.77 55.6914 192.77 56.1641V59.1172C192.77 59.3281 192.787 59.5527 192.822 59.791C192.861 60.0293 192.918 60.2344 192.992 60.4062V60.5H191.861C191.807 60.375 191.764 60.209 191.732 60.002C191.701 59.791 191.686 59.5957 191.686 59.416ZM191.873 56.6562L191.885 57.418H190.789C190.48 57.418 190.205 57.4434 189.963 57.4941C189.721 57.541 189.518 57.6133 189.354 57.7109C189.189 57.8086 189.064 57.9316 188.979 58.0801C188.893 58.2246 188.85 58.3945 188.85 58.5898C188.85 58.7891 188.895 58.9707 188.984 59.1348C189.074 59.2988 189.209 59.4297 189.389 59.5273C189.572 59.6211 189.797 59.668 190.062 59.668C190.395 59.668 190.688 59.5977 190.941 59.457C191.195 59.3164 191.396 59.1445 191.545 58.9414C191.697 58.7383 191.779 58.541 191.791 58.3496L192.254 58.8711C192.227 59.0352 192.152 59.2168 192.031 59.416C191.91 59.6152 191.748 59.8066 191.545 59.9902C191.346 60.1699 191.107 60.3203 190.83 60.4414C190.557 60.5586 190.248 60.6172 189.904 60.6172C189.475 60.6172 189.098 60.5332 188.773 60.3652C188.453 60.1973 188.203 59.9727 188.023 59.6914C187.848 59.4062 187.76 59.0879 187.76 58.7363C187.76 58.3965 187.826 58.0977 187.959 57.8398C188.092 57.5781 188.283 57.3613 188.533 57.1895C188.783 57.0137 189.084 56.8809 189.436 56.791C189.787 56.7012 190.18 56.6562 190.613 56.6562H191.873Z" fill="black"/>
<defs>
<clipPath id="clip0_2_521">
<rect width="48" height="48" fill="white" transform="translate(47 45.5)"/>
</clipPath>
<clipPath id="clip1_2_521">
<rect width="48" height="48" fill="white" transform="translate(47 45.5)"/>
</clipPath>
</defs>
</svg>
