<svg width="310" height="139" viewBox="0 0 310 139" fill="none" xmlns="http://www.w3.org/2000/svg">
<rect width="310" height="139" fill="white"/>
<g clip-path="url(#clip0_1_745)">
<path d="M81.1451 45.5H73.0556V78.1956C73.0556 82.0913 69.9444 85.2913 66.0725 85.2913C62.2007 85.2913 59.0894 82.0913 59.0894 78.1956C59.0894 74.3696 62.1315 71.2391 65.8651 71.1V62.8913C57.6374 63.0304 51 69.7783 51 78.1956C51 86.6827 57.7757 93.5 66.1417 93.5C74.5075 93.5 81.2833 86.6131 81.2833 78.1956V61.4304C84.3255 63.6565 88.059 64.9783 92 65.0479V56.8391C85.9157 56.6304 81.1451 51.6217 81.1451 45.5Z" fill="black"/>
</g>
<path d="M126.494 84.5V71.9H128.906L134.27 80.792H132.992L138.266 71.9H140.66L140.696 84.5H137.96L137.942 76.094H138.446L134.234 83.168H132.92L128.618 76.094H129.23V84.5H126.494ZM149.805 84.716C148.809 84.716 147.885 84.554 147.033 84.23C146.193 83.906 145.461 83.45 144.837 82.862C144.225 82.274 143.745 81.584 143.397 80.792C143.061 80 142.893 79.136 142.893 78.2C142.893 77.264 143.061 76.4 143.397 75.608C143.745 74.816 144.231 74.126 144.855 73.538C145.479 72.95 146.211 72.494 147.051 72.17C147.891 71.846 148.803 71.684 149.787 71.684C150.783 71.684 151.695 71.846 152.523 72.17C153.363 72.494 154.089 72.95 154.701 73.538C155.325 74.126 155.811 74.816 156.159 75.608C156.507 76.388 156.681 77.252 156.681 78.2C156.681 79.136 156.507 80.006 156.159 80.81C155.811 81.602 155.325 82.292 154.701 82.88C154.089 83.456 153.363 83.906 152.523 84.23C151.695 84.554 150.789 84.716 149.805 84.716ZM149.787 82.232C150.351 82.232 150.867 82.136 151.335 81.944C151.815 81.752 152.235 81.476 152.595 81.116C152.955 80.756 153.231 80.33 153.423 79.838C153.627 79.346 153.729 78.8 153.729 78.2C153.729 77.6 153.627 77.054 153.423 76.562C153.231 76.07 152.955 75.644 152.595 75.284C152.247 74.924 151.833 74.648 151.353 74.456C150.873 74.264 150.351 74.168 149.787 74.168C149.223 74.168 148.701 74.264 148.221 74.456C147.753 74.648 147.339 74.924 146.979 75.284C146.619 75.644 146.337 76.07 146.133 76.562C145.941 77.054 145.845 77.6 145.845 78.2C145.845 78.788 145.941 79.334 146.133 79.838C146.337 80.33 146.613 80.756 146.961 81.116C147.321 81.476 147.741 81.752 148.221 81.944C148.701 82.136 149.223 82.232 149.787 82.232ZM164.957 84.716C163.961 84.716 163.043 84.56 162.203 84.248C161.375 83.924 160.649 83.468 160.025 82.88C159.413 82.292 158.933 81.602 158.585 80.81C158.249 80.018 158.081 79.148 158.081 78.2C158.081 77.252 158.249 76.382 158.585 75.59C158.933 74.798 159.419 74.108 160.043 73.52C160.667 72.932 161.399 72.482 162.239 72.17C163.079 71.846 164.003 71.684 165.011 71.684C166.127 71.684 167.129 71.87 168.017 72.242C168.917 72.614 169.673 73.154 170.285 73.862L168.413 75.59C167.957 75.11 167.459 74.756 166.919 74.528C166.379 74.288 165.791 74.168 165.155 74.168C164.543 74.168 163.985 74.264 163.481 74.456C162.977 74.648 162.539 74.924 162.167 75.284C161.807 75.644 161.525 76.07 161.321 76.562C161.129 77.054 161.033 77.6 161.033 78.2C161.033 78.788 161.129 79.328 161.321 79.82C161.525 80.312 161.807 80.744 162.167 81.116C162.539 81.476 162.971 81.752 163.463 81.944C163.967 82.136 164.519 82.232 165.119 82.232C165.695 82.232 166.253 82.142 166.793 81.962C167.345 81.77 167.879 81.452 168.395 81.008L170.051 83.114C169.367 83.63 168.569 84.026 167.657 84.302C166.757 84.578 165.857 84.716 164.957 84.716ZM167.387 82.736V78.002H170.051V83.114L167.387 82.736ZM172.76 84.5V71.9H178.214C179.342 71.9 180.314 72.086 181.13 72.458C181.946 72.818 182.576 73.34 183.02 74.024C183.464 74.708 183.686 75.524 183.686 76.472C183.686 77.408 183.464 78.218 183.02 78.902C182.576 79.574 181.946 80.09 181.13 80.45C180.314 80.81 179.342 80.99 178.214 80.99H174.38L175.676 79.712V84.5H172.76ZM180.77 84.5L177.62 79.928H180.734L183.92 84.5H180.77ZM175.676 80.036L174.38 78.668H178.052C178.952 78.668 179.624 78.476 180.068 78.092C180.512 77.696 180.734 77.156 180.734 76.472C180.734 75.776 180.512 75.236 180.068 74.852C179.624 74.468 178.952 74.276 178.052 74.276H174.38L175.676 72.89V80.036ZM184.34 84.5L189.956 71.9H192.836L198.47 84.5H195.41L190.802 73.376H191.954L187.328 84.5H184.34ZM187.148 81.8L187.922 79.586H194.402L195.194 81.8H187.148ZM199.777 84.5V71.9H205.231C206.359 71.9 207.331 72.086 208.147 72.458C208.963 72.818 209.593 73.34 210.037 74.024C210.481 74.708 210.703 75.524 210.703 76.472C210.703 77.408 210.481 78.218 210.037 78.902C209.593 79.586 208.963 80.114 208.147 80.486C207.331 80.846 206.359 81.026 205.231 81.026H201.397L202.693 79.712V84.5H199.777ZM202.693 80.036L201.397 78.65H205.069C205.969 78.65 206.641 78.458 207.085 78.074C207.529 77.69 207.751 77.156 207.751 76.472C207.751 75.776 207.529 75.236 207.085 74.852C206.641 74.468 205.969 74.276 205.069 74.276H201.397L202.693 72.89V80.036ZM221.425 71.9H224.341V84.5H221.425V71.9ZM215.701 84.5H212.785V71.9H215.701V84.5ZM221.641 79.334H215.485V76.868H221.641V79.334ZM227.322 84.5V71.9H230.238V82.124H236.556V84.5H227.322ZM238.185 84.5V71.9H241.101V82.124H247.419V84.5H238.185ZM254.958 84.716C253.962 84.716 253.038 84.554 252.186 84.23C251.346 83.906 250.614 83.45 249.99 82.862C249.378 82.274 248.898 81.584 248.55 80.792C248.214 80 248.046 79.136 248.046 78.2C248.046 77.264 248.214 76.4 248.55 75.608C248.898 74.816 249.384 74.126 250.008 73.538C250.632 72.95 251.364 72.494 252.204 72.17C253.044 71.846 253.956 71.684 254.94 71.684C255.936 71.684 256.848 71.846 257.676 72.17C258.516 72.494 259.242 72.95 259.854 73.538C260.478 74.126 260.964 74.816 261.312 75.608C261.66 76.388 261.834 77.252 261.834 78.2C261.834 79.136 261.66 80.006 261.312 80.81C260.964 81.602 260.478 82.292 259.854 82.88C259.242 83.456 258.516 83.906 257.676 84.23C256.848 84.554 255.942 84.716 254.958 84.716ZM254.94 82.232C255.504 82.232 256.02 82.136 256.488 81.944C256.968 81.752 257.388 81.476 257.748 81.116C258.108 80.756 258.384 80.33 258.576 79.838C258.78 79.346 258.882 78.8 258.882 78.2C258.882 77.6 258.78 77.054 258.576 76.562C258.384 76.07 258.108 75.644 257.748 75.284C257.4 74.924 256.986 74.648 256.506 74.456C256.026 74.264 255.504 74.168 254.94 74.168C254.376 74.168 253.854 74.264 253.374 74.456C252.906 74.648 252.492 74.924 252.132 75.284C251.772 75.644 251.49 76.07 251.286 76.562C251.094 77.054 250.998 77.6 250.998 78.2C250.998 78.788 251.094 79.334 251.286 79.838C251.49 80.33 251.766 80.756 252.114 81.116C252.474 81.476 252.894 81.752 253.374 81.944C253.854 82.136 254.376 82.232 254.94 82.232Z" fill="black"/>
<path d="M129.143 51.9688V60.5H128.029V51.9688H129.143ZM131.885 51.9688V52.8945H125.293V51.9688H131.885ZM134.164 54.1602V60.5H133.074V54.1602H134.164ZM132.992 52.4785C132.992 52.3027 133.045 52.1543 133.15 52.0332C133.26 51.9121 133.42 51.8516 133.631 51.8516C133.838 51.8516 133.996 51.9121 134.105 52.0332C134.219 52.1543 134.275 52.3027 134.275 52.4785C134.275 52.6465 134.219 52.791 134.105 52.9121C133.996 53.0293 133.838 53.0879 133.631 53.0879C133.42 53.0879 133.26 53.0293 133.15 52.9121C133.045 52.791 132.992 52.6465 132.992 52.4785ZM136.994 51.5V60.5H135.904V51.5H136.994ZM140.867 54.1602L138.102 57.1191L136.555 58.7246L136.467 57.5703L137.574 56.2461L139.543 54.1602H140.867ZM139.877 60.5L137.615 57.4766L138.178 56.5098L141.154 60.5H139.877ZM145.303 51.9688V60.5H144.189V51.9688H145.303ZM148.045 51.9688V52.8945H141.453V51.9688H148.045ZM148.273 57.4004V57.2656C148.273 56.8086 148.34 56.3848 148.473 55.9941C148.605 55.5996 148.797 55.2578 149.047 54.9688C149.297 54.6758 149.6 54.4492 149.955 54.2891C150.311 54.125 150.709 54.043 151.15 54.043C151.596 54.043 151.996 54.125 152.352 54.2891C152.711 54.4492 153.016 54.6758 153.266 54.9688C153.52 55.2578 153.713 55.5996 153.846 55.9941C153.979 56.3848 154.045 56.8086 154.045 57.2656V57.4004C154.045 57.8574 153.979 58.2812 153.846 58.6719C153.713 59.0625 153.52 59.4043 153.266 59.6973C153.016 59.9863 152.713 60.2129 152.357 60.377C152.006 60.5371 151.607 60.6172 151.162 60.6172C150.717 60.6172 150.316 60.5371 149.961 60.377C149.605 60.2129 149.301 59.9863 149.047 59.6973C148.797 59.4043 148.605 59.0625 148.473 58.6719C148.34 58.2812 148.273 57.8574 148.273 57.4004ZM149.357 57.2656V57.4004C149.357 57.7168 149.395 58.0156 149.469 58.2969C149.543 58.5742 149.654 58.8203 149.803 59.0352C149.955 59.25 150.145 59.4199 150.371 59.5449C150.598 59.666 150.861 59.7266 151.162 59.7266C151.459 59.7266 151.719 59.666 151.941 59.5449C152.168 59.4199 152.355 59.25 152.504 59.0352C152.652 58.8203 152.764 58.5742 152.838 58.2969C152.916 58.0156 152.955 57.7168 152.955 57.4004V57.2656C152.955 56.9531 152.916 56.6582 152.838 56.3809C152.764 56.0996 152.65 55.8516 152.498 55.6367C152.35 55.418 152.162 55.2461 151.936 55.1211C151.713 54.9961 151.451 54.9336 151.15 54.9336C150.854 54.9336 150.592 54.9961 150.365 55.1211C150.143 55.2461 149.955 55.418 149.803 55.6367C149.654 55.8516 149.543 56.0996 149.469 56.3809C149.395 56.6582 149.357 56.9531 149.357 57.2656ZM156.494 51.5V60.5H155.404V51.5H156.494ZM160.367 54.1602L157.602 57.1191L156.055 58.7246L155.967 57.5703L157.074 56.2461L159.043 54.1602H160.367ZM159.377 60.5L157.115 57.4766L157.678 56.5098L160.654 60.5H159.377Z" fill="black"/>
<defs>
<clipPath id="clip0_1_745">
<rect width="48" height="48" fill="white" transform="translate(47 45.5)"/>
</clipPath>
</defs>
</svg>
